<svg width="600" height="500" xmlns="http://www.w3.org/2000/svg">
 <defs>
  <linearGradient id="svg_141" x1="-0.113343" y1="0.864379" x2="0.688487" y2="0.06255">
   <stop offset="0.10753" stop-color="#C757BC"/>
   <stop offset="0.21383" stop-color="#D0609A"/>
   <stop offset="0.42537" stop-color="#E1725C"/>
   <stop offset="0.60485" stop-color="#EE7E2F"/>
   <stop offset="0.74303" stop-color="#F58613"/>
   <stop offset="0.82323" stop-color="#F88909"/>
  </linearGradient>
  <linearGradient id="svg_140" x1="0.352704" y1="1.292413" x2="0.775101" y2="0.451364">
   <stop offset="0.09677" stop-color="#0095D5"/>
   <stop offset="0.30073" stop-color="#238AD9"/>
   <stop offset="0.62106" stop-color="#557BDE"/>
   <stop offset="0.86432" stop-color="#7472E2"/>
   <stop offset="1" stop-color="#806EE3"/>
  </linearGradient>
  <linearGradient id="svg_138" x1="-0.091353" y1="0.586868" x2="0.644008" y2="-0.112396">
   <stop offset="0.09677" stop-color="#0095D5"/>
   <stop offset="0.30073" stop-color="#238AD9"/>
   <stop offset="0.62106" stop-color="#557BDE"/>
   <stop offset="0.86432" stop-color="#7472E2"/>
   <stop offset="1" stop-color="#806EE3"/>
  </linearGradient>
 </defs>
  <g id="svg_border">
   <rect id="svg_12" stroke="#212529" fill="#fff" height="500" width="600" y="0" x="0"/>
  </g>

 <g id="svg_325">
  <title>C#</title>
  <text id="svg_1" fill="#231F20" stroke="#000" stroke-width="0" x="18" y="50" font-weight="normal" font-size="46" font-family="sans-serif" text-anchor="start" xml:space="preserve">C#</text>
 </g>

 <g>
  <g stroke="null" id="svg_20">
   <path stroke="null" id="svg_19" fill="#212529" d="m210.46655,172.33845c40.35643,5.03838 135.19652,50.53198 150.16347,114.59844l-193.63185,0c49.1489,-4.00106 91.1354,-67.67235 43.46838,-114.59844zm15.80668,-75.08174c15.95487,17.58493 23.56183,41.44314 22.91969,65.9929c40.94918,16.64641 102.39766,61.1027 115.38878,123.68728l47.42004,0c-20.10412,-106.7445 -134.94955,-182.02382 -185.72851,-189.68018z"/>
  </g>
  <g stroke="null" id="svg_13">
   <rect stroke="#212529" id="svg_14" stroke-width="0" fill="#0078D7" height="80" width="600" x="0" y="310"/>
  </g>
  <text xml:space="preserve" text-anchor="start" font-family="'Segoe UI', 'Trebuchet MS', sans-serif" font-size="36" id="svg_21" y="362.5" x="40" fill-opacity="null" stroke-opacity="null" stroke-width="null" stroke="null" fill="#fff">Build Apps fast with ServiceStack</text>
 </g>

 <g>
  <title>Layer 1</title>
  <g id="svg_133" stroke="null">
   <g id="svg_108" transform="matrix(0.181586709357023,0,0,-0.181586709357023,-1524.3256491097598,-1110.1650002639603) " stroke="null">
    <g id="svg_109" stroke="null">
     <g id="svg_110" clip-path="url(#svg_111)" stroke="null">
      <g id="svg_128" stroke="null">
       <path d="m9808.78821,-8701.83095c-17.157,-0.01 -31.095,13.946 -31.097,31.101l-0.008,95.217c-0.006,17.137 13.929,31.09 31.063,31.093c8.332,0.007 16.13,-3.225 22.011,-9.096c5.881,-5.874 9.114,-13.686 9.12,-21.988l-0.008,-95.225c0.021,-8.291 -3.203,-16.104 -9.079,-21.969c-5.864,-5.891 -13.685,-9.13 -22.002,-9.133" id="svg_129" fill-rule="nonzero" fill="#ffffff"/>
      </g>
      <g id="svg_126" stroke="null">
       <path d="m9808.76382,-8552.77677c-12.556,0.006 -22.732,-10.19 -22.735,-22.735l0.017,-95.214c0.003,-12.588 10.197,-22.747 22.738,-22.759c12.566,0.015 22.744,10.178 22.731,22.758l0.002,95.227c-0.005,12.542 -10.195,22.732 -22.753,22.723" id="svg_127" fill-rule="nonzero" fill="#ffffff"/>
      </g>
      <g id="svg_124" stroke="null">
       <path d="m10052.6651,-8557.49115l-8.359,0.003l-204.813,-0.027l-8.362,-0.003l-0.003,8.361c-0.019,34.321 18.68,66.242 49.304,85.102l-11.906,21.733c-1.458,2.548 -1.822,5.772 -0.975,8.723c0.861,2.949 2.894,5.482 5.621,6.933c1.576,0.894 3.501,1.391 5.449,1.388c4.216,-0.001 8.083,-2.289 10.117,-5.989l12.462,-22.701c12.897,4.732 26.511,7.144 40.576,7.139c14.268,0.006 27.951,-2.409 40.902,-7.159l12.442,22.74c2.003,3.691 5.895,5.99 10.106,5.986c1.896,0.002 3.786,-0.461 5.455,-1.359c2.799,-1.536 4.751,-3.984 5.61,-6.954c0.855,-2.952 0.512,-6.07 -0.988,-8.774l-11.9,-21.723c30.578,-18.898 49.254,-50.796 49.251,-85.057l0.011,-8.362z" id="svg_125" fill-rule="nonzero" fill="#ffffff"/>
      </g>
      <g id="svg_122" stroke="null">
       <path d="m9988.55771,-8512.04044c-4.734,-0.005 -8.597,3.828 -8.588,8.585c0,4.707 3.848,8.588 8.592,8.604c4.709,-0.013 8.572,-3.895 8.568,-8.609c0.003,-4.74 -3.839,-8.581 -8.572,-8.58m-93.257,-0.017c-4.717,0.011 -8.559,3.845 -8.56,8.581c0.002,4.718 3.842,8.596 8.567,8.596c4.749,0.004 8.59,-3.878 8.596,-8.594c0.002,-4.733 -3.847,-8.58 -8.603,-8.583m96.818,44.782l15.869,28.981c0.846,1.514 0.293,3.454 -1.238,4.293c-1.552,0.836 -3.467,0.265 -4.285,-1.257l-16.035,-29.271c-13.486,5.985 -28.585,9.356 -44.547,9.34c-15.929,0.013 -31.001,-3.34 -44.448,-9.309l-16.046,29.207c-0.828,1.54 -2.762,2.103 -4.271,1.255c-1.543,-0.823 -2.107,-2.759 -1.252,-4.27l15.878,-28.956c-31.196,-16.092 -52.271,-46.727 -52.255,-81.899l204.81,0.021c0.006,35.167 -21.032,65.738 -52.18,81.865" id="svg_123" fill-rule="nonzero" fill="#ffffff"/>
      </g>
      <g id="svg_120" stroke="null">
       <path d="m9903.88242,-8810.35536c-17.14,0.002 -31.089,13.944 -31.093,31.095l-0.008,42.023l-8.167,-0.007c-8.728,-0.002 -16.918,3.389 -23.074,9.549c-6.164,6.154 -9.56,14.35 -9.548,23.084l-0.03,147.53l-0.002,8.367l8.361,-0.002l203.275,0.032l8.364,0.006l0.001,-8.361l0.021,-147.549c0.003,-17.993 -14.635,-32.635 -32.625,-32.631l-8.223,-0.01l0.012,-42.008c-0.002,-17.14 -13.946,-31.097 -31.079,-31.096c-8.305,-0.019 -16.102,3.21 -21.987,9.097c-5.891,5.871 -9.133,13.678 -9.129,21.979l-0.001,42.029l-13.973,0.001l0,-42.022c-0.003,-17.146 -13.948,-31.109 -31.095,-31.106" id="svg_121" fill-rule="nonzero" fill="#ffffff"/>
      </g>
      <g id="svg_118" stroke="null">
       <path d="m9840.36142,-8704.61126c-0.012,-13.436 10.833,-24.282 24.257,-24.277l16.52,-0.001l0.019,-50.379c-0.003,-12.541 10.187,-22.738 22.72,-22.739c12.564,0 22.742,10.206 22.731,22.756l0.002,50.368l30.696,0.005l-0.002,-50.377c0.011,-12.543 10.214,-22.749 22.744,-22.728c12.562,-0.008 22.747,10.198 22.745,22.749l-0.014,50.363l16.58,0.005c13.378,-0.005 24.261,10.867 24.26,24.274l-0.026,147.559l-203.269,-0.036l0.037,-147.542z" id="svg_119" fill-rule="nonzero" fill="#ffffff"/>
      </g>
      <g id="svg_116" stroke="null">
       <path d="m10075.1319,-8701.79285c-17.148,-0.002 -31.098,13.933 -31.093,31.087l-0.023,95.217c0.004,17.152 13.931,31.102 31.072,31.103c17.162,0.002 31.118,-13.945 31.115,-31.093l0.009,-95.211c0.004,-17.141 -13.933,-31.106 -31.08,-31.103" id="svg_117" fill-rule="nonzero" fill="#ffffff"/>
      </g>
      <g id="svg_114" stroke="null">
       <path d="m10075.10559,-8552.74607c-12.555,0.01 -22.731,-10.186 -22.729,-22.743l0.009,-95.213c0.006,-12.572 10.177,-22.743 22.743,-22.735c12.555,0.002 22.719,10.165 22.73,22.743l-0.025,95.211c-0.002,12.56 -10.171,22.74 -22.728,22.737" id="svg_115" fill-rule="nonzero" fill="#ffffff"/>
      </g>
      <g id="svg_112" stroke="null">
       <path d="m10097.84192,-8575.47745c-0.002,12.557 -10.18,22.734 -22.736,22.731c-12.555,0.01 -22.732,-10.185 -22.729,-22.743l0.016,-95.215c-0.001,-12.57 10.172,-22.729 22.736,-22.733c12.555,0.002 22.727,10.163 22.73,22.743l-0.017,95.217zm-257.517,18.408l0.035,-147.555c-0.011,-13.422 10.845,-24.255 24.26,-24.258l16.519,-0.007l0.019,-50.379c-0.003,-12.541 10.193,-22.739 22.72,-22.739c12.564,0 22.742,10.206 22.745,22.755l-0.012,50.369l30.696,0.006l0.013,-50.377c-0.003,-12.536 10.199,-22.749 22.728,-22.729c12.563,-0.008 22.747,10.198 22.745,22.749l-0.014,50.363l16.577,0.013c13.382,-0.005 24.268,10.844 24.271,24.266l-0.025,147.557l-203.277,-0.034zm148.233,45.029c-4.735,-0.005 -8.589,3.834 -8.588,8.585c0.016,4.705 3.848,8.588 8.592,8.604c4.709,-0.013 8.572,-3.895 8.568,-8.609c0.011,-4.741 -3.839,-8.581 -8.572,-8.58m-93.258,-0.017c-4.716,0.011 -8.558,3.845 -8.559,8.581c0.002,4.718 3.835,8.597 8.567,8.596c4.749,0.004 8.59,-3.878 8.596,-8.594c0.002,-4.732 -3.848,-8.58 -8.604,-8.583m96.818,44.782l15.87,28.981c0.846,1.514 0.291,3.443 -1.245,4.298c-1.547,0.82 -3.46,0.263 -4.278,-1.262l-16.029,-29.283c-13.491,6.001 -28.582,9.37 -44.553,9.352c-15.929,0.013 -31.016,-3.341 -44.448,-9.309l-16.046,29.207c-0.836,1.541 -2.755,2.098 -4.27,1.259c-1.545,-0.831 -2.109,-2.763 -1.253,-4.274l15.877,-28.959c-31.195,-16.089 -52.271,-46.724 -52.255,-81.896l204.811,0.021c0.006,35.167 -21.032,65.738 -52.181,81.865m-183.354,-85.501c-12.556,0.006 -22.732,-10.191 -22.735,-22.736l0.017,-95.213c0.003,-12.588 10.183,-22.745 22.74,-22.743c12.564,-0.001 22.742,10.162 22.729,22.742l0.002,95.227c-0.005,12.542 -10.196,22.731 -22.753,22.723" id="svg_113" fill-rule="nonzero" fill="#a4c439"/>
      </g>
     </g>
    </g>
   </g>
  </g>
 </g>
 <g id="svg_284" stroke="null">
  <title>TypeScript</title>
  <style>.tsc{fill:#007ACC}</style>
  <text id="svg_2" fill="#f00" stroke="#000" stroke-width="0" font-weight="normal" font-size="38" font-family="'Segoe UI'" text-anchor="start" xml:space="preserve" x="90" y="45" class="tsc">Type</text>
  <text id="svg_3" fill="#f00" stroke="#000" stroke-width="0" font-weight="lighter" font-size="38" font-family="'Segoe UI'" text-anchor="start" xml:space="preserve" x="167" y="45" class="tsc">Script</text>
 </g>
 <g id="svg_235">
  <title>Swift</title>
  <g id="svg_222" transform="matrix(0.6584102894979794,0,0,0.6584102894979794,296.9066984649352,-540.3114067717072) ">
   <g id="svg_223">
    <path fill="#F05138" d="m15.92525,857.61136c0,-0.6 0,-1.2 0,-1.8c0,-1.3 -0.1,-2.6 -0.3,-3.9c-0.2,-1.3 -0.6,-2.5 -1.2,-3.7c-0.6,-1.2 -1.4,-2.2 -2.3,-3.2c-0.9,-0.9 -2,-1.7 -3.2,-2.3c-1.2,-0.6 -2.4,-1 -3.7,-1.2c-1.3,-0.2 -2.6,-0.3 -3.9,-0.3c-0.6,0 -1.2,0 -1.8,0c-0.7,0 -1.4,0 -2.1,0l-15.7,0l-6.5,0c-0.7,0 -1.4,0 -2.1,0c-0.6,0 -1.2,0 -1.8,0c-0.3,0 -0.7,0 -1,0c-1,0 -2,0.1 -2.9,0.3c-1,0.2 -1.9,0.4 -2.8,0.8c-0.3,0.1 -0.6,0.3 -0.9,0.4c-0.9,0.4 -1.7,1 -2.4,1.6c-0.2,0.2 -0.5,0.4 -0.7,0.7c-0.9,0.9 -1.7,2 -2.3,3.2c-0.6,1.2 -1,2.4 -1.2,3.7c-0.2,1.3 -0.3,2.6 -0.3,3.9c0,0.6 0,1.2 0,1.8c0,0.7 0,1.4 0,2.1l0,9.7l0,12.6c0,0.7 0,1.4 0,2.1c0,0.6 0,1.2 0,1.8c0,1.3 0.1,2.6 0.3,3.9c0.2,1.3 0.6,2.5 1.2,3.7c0.6,1.2 1.4,2.2 2.3,3.2c0.9,0.9 2,1.7 3.2,2.3c1.2,0.6 2.4,1 3.7,1.2c1.3,0.2 2.6,0.3 3.9,0.3c0.6,0 1.2,0 1.8,0c0.7,0 1.4,0 2.1,0l22.2,0c0.7,0 1.4,0 2.1,0c0.6,0 1.2,0 1.8,0c1.3,0 2.6,-0.1 3.9,-0.3c1.3,-0.2 2.5,-0.6 3.7,-1.2c1.2,-0.6 2.2,-1.4 3.2,-2.3c0.9,-0.9 1.7,-2 2.3,-3.2c0.6,-1.2 1,-2.4 1.2,-3.7c0.2,-1.3 0.3,-2.6 0.3,-3.9c0,-0.6 0,-1.2 0,-1.8c0,-0.7 0,-1.4 0,-2.1l0,-22.2c-0.1,-0.8 -0.1,-1.5 -0.1,-2.2z" id="svg_224"/>
    <path fill="#FFFFFF" d="m3.62525,877.81136c0,0 0,0 0,0c0.1,-0.2 0.1,-0.5 0.2,-0.7c2.5,-9.8 -3.6,-21.4 -13.7,-27.5c4.5,6 6.4,13.4 4.7,19.8c-0.2,0.6 -0.3,1.1 -0.6,1.7c-0.2,-0.1 -0.5,-0.3 -0.9,-0.5c0,0 -10.1,-6.3 -21.1,-17.3c-0.3,-0.3 5.9,8.8 12.8,16.1c-3.3,-1.8 -12.4,-8.5 -18.2,-13.8c0.7,1.2 1.6,2.3 2.5,3.4c4.8,6.1 11.1,13.7 18.7,19.5c-5.3,3.2 -12.8,3.5 -20.3,0c-1.8,-0.9 -3.6,-1.9 -5.2,-3.1c3.2,5.1 8,9.4 14,12c7.1,3 14.1,2.8 19.3,0.1l0,0c0,0 0.1,0 0.1,0c0.2,-0.1 0.4,-0.2 0.6,-0.4c2.5,-1.3 7.5,-2.6 10.2,2.6c0.6,1.1 2,-5.7 -3.1,-11.9z" id="svg_228"/>
   </g>
   <g id="svg_229">
    <path d="m35.72525,894.71136c1.3,0.9 2.8,1.6 4.5,2.2c1.7,0.5 3.5,0.8 5.4,0.8c3.4,0 6.1,-0.9 8.1,-2.6c1.9,-1.8 2.9,-4.1 2.9,-7c0,-2.6 -0.7,-4.7 -2.1,-6.4c-1.4,-1.6 -3.8,-3.1 -7.1,-4.5c-3.6,-1.3 -6.4,-2.9 -8.5,-4.9c-2.1,-2 -3.2,-4.6 -3.2,-7.8c0,-1.7 0.3,-3.3 1,-4.7c0.7,-1.4 1.6,-2.7 2.7,-3.7s2.6,-1.8 4.2,-2.4c1.6,-0.6 3.4,-0.9 5.3,-0.9c2.2,0 4.1,0.2 5.6,0.7c1.5,0.5 2.7,0.9 3.4,1.4l-1.2,2.7c-0.6,-0.5 -1.7,-0.9 -3,-1.4c-1.4,-0.5 -3,-0.7 -4.9,-0.7c-1.8,0 -3.4,0.3 -4.6,0.8c-1.3,0.5 -2.3,1.2 -3,2c-0.8,0.8 -1.3,1.7 -1.6,2.7c-0.3,1 -0.5,1.9 -0.5,2.9c0,2.6 0.8,4.6 2.3,6.1c1.5,1.5 3.9,2.9 7.2,4.2c1.9,0.8 3.5,1.6 5,2.5c1.4,0.9 2.6,1.8 3.6,2.9c1,1.1 1.7,2.2 2.2,3.6c0.5,1.3 0.7,2.8 0.7,4.5c0,1.7 -0.3,3.3 -0.9,4.8s-1.5,2.9 -2.7,4.1c-1.2,1.2 -2.7,2.1 -4.5,2.8c-1.8,0.7 -3.9,1 -6.3,1c-1,0 -2,-0.1 -3,-0.2c-1,-0.2 -2,-0.4 -3,-0.7c-1,-0.3 -1.9,-0.6 -2.7,-1c-0.8,-0.4 -1.6,-0.8 -2.2,-1.2l0.9,-2.6z" id="svg_230"/>
    <path d="m65.82525,866.81136l5.4,18.7c0.6,1.9 1.1,3.7 1.5,5.4c0.5,1.7 0.9,3.3 1.2,4.9l0.2,0c0.4,-1.6 0.9,-3.2 1.4,-4.9c0.6,-1.7 1.1,-3.5 1.8,-5.5l6.5,-18.7l3,0l6.2,18.5c0.6,2 1.2,3.9 1.8,5.6c0.6,1.7 1,3.4 1.4,4.9l0.2,0c0.3,-1.6 0.7,-3.2 1.2,-4.9c0.5,-1.6 1,-3.5 1.7,-5.6l5.8,-18.6l3.3,0l-10.8,33l-2.8,0l-6.1,-18.4c-0.7,-2 -1.3,-3.8 -1.9,-5.6c-0.6,-1.8 -1,-3.6 -1.4,-5.5l-0.1,0c-0.5,2 -1.1,3.9 -1.6,5.7c-0.6,1.8 -1.2,3.7 -1.9,5.6l-6.5,18.3l-2.8,0l-10,-33l3.3,0.1l0,0z" id="svg_231"/>
    <path d="m114.02525,856.81136c0,-0.8 0.3,-1.4 0.8,-2c0.5,-0.6 1.2,-0.8 2,-0.8s1.4,0.3 2,0.8c0.5,0.5 0.8,1.2 0.8,2c0,0.8 -0.3,1.4 -0.8,2c-0.6,0.5 -1.2,0.8 -2,0.8s-1.4,-0.3 -2,-0.8c-0.5,-0.6 -0.8,-1.2 -0.8,-2zm1.2,43l0,-33l3.2,0l0,33l-3.2,0l0,0z" id="svg_232"/>
    <path d="m131.62525,899.81136l0,-30.4l-4.7,0l0,-2.5l4.7,0l0,-1.9c0,-2.1 0.2,-4 0.5,-5.8c0.4,-1.8 1,-3.3 1.8,-4.6c0.8,-1.3 2,-2.3 3.3,-3.1c1.4,-0.8 3.1,-1.1 5.1,-1.1c1.1,0 2,0.1 2.8,0.3c0.8,0.2 1.5,0.5 2,0.8l-1,2.5c-0.5,-0.2 -1,-0.4 -1.6,-0.6c-0.6,-0.2 -1.4,-0.3 -2.4,-0.3c-1.6,0 -2.8,0.3 -3.7,1c-0.9,0.6 -1.7,1.5 -2.2,2.6c-0.5,1.1 -0.9,2.3 -1.1,3.8c-0.2,1.5 -0.3,3 -0.3,4.5l0,1.9l15.7,0l0,2.5l-15.6,0l0,30.4l-3.3,0l0,0z" id="svg_233"/>
    <path d="m152.82525,859.51136l0,7.4l9.1,0l0,2.5l-9.1,0l0,21.5c0,2.2 0.4,3.9 1.1,5.1c0.7,1.2 1.9,1.8 3.7,1.8c0.8,0 1.5,0 2.1,-0.1c0.6,-0.1 1.1,-0.2 1.5,-0.3l0.3,2.5c-1.1,0.5 -2.6,0.8 -4.4,0.8c-1.5,0 -2.8,-0.3 -3.7,-0.8c-1,-0.5 -1.7,-1.2 -2.3,-2.1c-0.6,-0.9 -1,-2 -1.2,-3.2c-0.2,-1.3 -0.3,-2.6 -0.3,-4.1l0,-20.9l0.2,0l0,-2.5l-0.2,0l0,-6.1l3.2,-1.5z" id="svg_234"/>
   </g>
  </g>
 </g>
 <g id="svg_158" stroke="null">
  <title>Kotlin</title>
  <g id="svg_151" transform="matrix(0.3214490044306324,0,0,0.3214490044306324,-927.0304866251761,-102.7301946462537) " stroke="null">
   <g id="svg_143" stroke="null">
    <g id="svg_152" stroke="null">
     <path id="svg_149" d="m4357.76306,373.04278l22.41515,0l-0.00002,44.53899l41.33662,-44.53899l27.07285,0l-41.48227,43.22878l43.37444,58.65769l-26.9272,-0.00001l-31.58487,-43.37384l-11.78957,12.22592l-0.00002,31.14793l-22.41516,0l0.00005,-101.88647z" fill="#231F20" stroke="null"/>
     <path id="svg_148" d="m4438.56743,436.35758l0,-0.29012c0.00002,-22.41514 18.04878,-40.60953 42.35612,-40.60953c24.16174,0 42.06482,17.9031 42.06482,40.31824l0,0.29129c0,22.41515 -18.04877,40.60836 -42.35614,40.60836c-24.1617,0 -42.0648,-17.90311 -42.0648,-40.31824zm62.58778,0l0,-0.29012c0,-11.49944 -8.29645,-21.54244 -20.52295,-21.54244c-12.66284,0 -20.23166,9.75171 -20.23166,21.25115l0,0.29129c-0.00002,11.49828 8.29643,21.54128 20.52295,21.54128c12.66284,0 20.23166,-9.75171 20.23166,-21.25116z" fill="#231F20" stroke="null"/>
     <path id="svg_147" d="m4529.09549,452.80541l0,-36.97018l-9.31537,0l0,-18.92202l9.31537,0l0.00003,-19.94094l22.12445,0l0,19.94094l18.33945,0l0,18.92202l-18.33948,0l0,33.332c0,5.09345 2.18289,7.56881 7.13187,7.56881c4.07571,0 7.71448,-1.01892 10.91629,-2.76665l0,17.75804c-4.65768,2.76548 -10.043,4.51204 -17.46619,4.51204c-13.53614,0.00001 -22.70645,-5.3859 -22.70642,-23.43406z" fill="#231F20" stroke="null"/>
     <path id="svg_146" d="m4575.91034,368.67582l22.12387,0l-0.00006,106.25345l-22.12384,0l0.00003,-106.25345z" fill="#231F20" stroke="null"/>
     <path id="svg_145" d="m4606.03131,368.67582l23.28784,0l0,19.64966l-23.28787,0l0.00003,-19.64966zm0.58255,28.23739l22.12387,0l-0.00003,78.01606l-22.12387,-0.00001l0.00003,-78.01605z" fill="#231F20" stroke="null"/>
     <path id="svg_144" d="m4637.15396,396.91322l22.12387,0l0,11.06193c5.09464,-6.54988 11.64453,-12.51719 22.8515,-12.51719c16.73914,0 26.49084,11.06193 26.49084,28.96503l0,50.50631l-22.12387,-0.00001l0,-43.52008c0,-10.47935 -4.94955,-15.86526 -13.39105,-15.86526c-8.44269,0 -13.82742,5.3859 -13.82742,15.86525l-0.00003,43.52007l-22.12387,0l0.00003,-78.01605z" fill="#231F20" stroke="null"/>
    </g>
   </g>
   <g id="svg_155" stroke="null">
    <polygon points="4274.22705078125,372.9913454055786 4223.0810546875,426.7772340774536 4223.0810546875,474.8604860305786 4274.1533203125,423.6988649368286 4324.9501953125,372.9913454055786 " fill="url(#svg_141)" id="svg_156" stroke="null"/>
    <polygon id="svg_139" points="4223.0810546875,474.8607301712036 4274.1533203125,423.6991090774536 4324.95068359375,474.8607301712036 " fill="url(#svg_140)" stroke="null"/>
    <polygon points="4223.0810546875,372.9913454055786 4274.22705078125,372.9913454055786 4223.0810546875,426.7772340774536 " fill="url(#svg_138)" id="svg_157" stroke="null"/>
   </g>
  </g>
 </g>
 <g id="svg_298" stroke="null">
  <title>JS</title>
  <rect width="630" height="630" fill="#f7df1e" id="svg_296" transform="matrix(0.10173287867799817,0,0,0.10173287867799817,-13.832788266347407,-44.301719873900396) " y="1452.607341" x="295.348379" stroke="null"/>
  <path d="m59.2672,153.54811c1.29099,2.10791 2.9706,3.6573 5.9412,3.6573c2.49551,0 4.08967,-1.24725 4.08967,-2.9706c0,-2.06518 -1.6379,-2.79664 -4.38469,-3.9981l-1.50565,-0.64601c-4.34603,-1.85153 -7.23321,-4.17104 -7.23321,-9.07457c0,-4.51694 3.44163,-7.95551 8.82024,-7.95551c3.82923,0 6.58212,1.3327 8.56591,4.82214l-4.68988,3.01129c-1.03259,-1.85154 -2.14657,-2.58096 -3.87603,-2.58096c-1.76405,0 -2.88209,1.11906 -2.88209,2.58096c0,1.80678 1.11906,2.53824 3.70308,3.6573l1.50564,0.64498c5.11717,2.19438 8.00638,4.43149 8.00638,9.46116c0,5.42236 -4.25955,8.39296 -9.97999,8.39296c-5.59328,0 -9.20683,-2.6654 -10.97495,-6.1589l4.89437,-2.84344zm-21.27539,0.52189c0.94611,1.67859 1.80677,3.09777 3.87602,3.09777c1.9787,0 3.22697,-0.77419 3.22697,-3.78446l0,-20.47883l6.02258,0l0,20.56021c0,6.23623 -3.65628,9.07458 -8.99318,9.07458c-4.82214,0 -7.61471,-2.49551 -9.0349,-5.50121l4.90251,-2.96806z" id="svg_297" stroke="null"/>
 </g>
 <g id="svg_288" transform="matrix(0.5749612212371861,0,0,0.5749612212371861,275.2923145785341,224.92318276093354) " stroke="null">
  <title>F#</title>
  <path d="m-453.86599,50.12965l56,-56l0,28l-28,28l28,28l0,28l-56,-56z" fill="#378bba" id="svg_289" stroke="null"/>
  <path d="m-417.86599,50.12965l20,-20l0,40l-20,-20z" fill="#378bba" id="svg_290" stroke="null"/>
  <path d="m-335.86599,50.12965l-58,-56l0,28l28,28l-28,28l0,28l58,-56z" fill="#30b9db" id="svg_291" stroke="null"/>
 </g>
 <g id="svg_78" stroke="null">
  <title>Java</title>
  <g id="svg_52" transform="matrix(0.7761708673637667,0,0,0.7761708673637667,-318.77264918762205,-493.8879363610398) " stroke="null">
   <path id="svg_76" d="m1122.85952,777.60294c4.42685,5.09396 -1.16262,9.67891 -1.16262,9.67891c0,0 11.23293,-5.80156 6.07342,-13.06268c-4.81825,-6.76944 -8.5105,-10.13393 11.48936,-21.73512c0,0 -31.39668,7.84339 -16.40016,25.11889" stroke-width="1.928069" fill-rule="nonzero" fill="#f8971d"/>
   <path id="svg_75" d="m1127.76954,733.75401c0,0 9.52852,9.53045 -9.03686,24.18956c-14.88662,11.75737 -3.39533,18.45934 -0.004,26.12149c-8.68976,-7.84146 -15.06974,-14.74202 -10.79136,-21.16828c6.2778,-9.43019 23.68055,-14.00357 19.83212,-29.14277" stroke-width="1.928069" fill-rule="nonzero" fill="#f8971d"/>
   <path id="svg_74" d="m1102.00842,873.87125c-0.66712,0.96018 -1.58488,1.43834 -2.75329,1.43834c-2.25777,0 -3.38569,-1.52896 -3.38569,-4.59073c0,-1.57909 0.31235,-2.79763 0.93897,-3.65177c0.6247,-0.85413 1.49618,-1.28216 2.61061,-1.28216c1.08743,0 1.89143,0.50901 2.41201,1.52317l-0.71338,0.63048c-0.40104,-0.64012 -0.92355,-0.96018 -1.56174,-0.96018c-0.67675,0 -1.20119,0.31621 -1.57716,0.95247c-0.37404,0.63433 -0.56107,1.47883 -0.56107,2.5277c0,2.43129 0.70375,3.64598 2.11124,3.64598c0.66518,0 1.27445,-0.32006 1.82202,-0.95825l0.65748,0.72495z" stroke-width="1.928069" fill-rule="nonzero" fill="#58839f"/>
   <path id="svg_73" d="m1108.87446,870.63711c0,-1.31495 -0.18702,-2.27513 -0.56299,-2.87861c-0.34513,-0.55528 -0.89077,-0.83485 -1.62922,-0.83485c-1.41713,0 -2.12473,1.16455 -2.12473,3.49366c0,1.33422 0.18702,2.30211 0.56299,2.9056c0.34513,0.55721 0.89077,0.83678 1.62922,0.83678c1.41713,0 2.12473,-1.17612 2.12473,-3.52258m1.56174,-0.26029c0,1.66199 -0.36055,2.9191 -1.08165,3.76937c-0.65747,0.77702 -1.57716,1.16263 -2.75521,1.16263c-1.17805,0 -2.05918,-0.34127 -2.64531,-1.02573c-0.63819,-0.75774 -0.95825,-1.95121 -0.95825,-3.5785c0,-1.65236 0.36055,-2.90367 1.08165,-3.75395c0.6594,-0.77701 1.57716,-1.16456 2.75521,-1.16456c2.40237,0 3.60356,1.53089 3.60356,4.59074" stroke-width="1.928069" fill-rule="nonzero" fill="#58839f"/>
   <path id="svg_72" d="m1121.65949,875.1727l-1.54824,0c-0.054,-2.61061 -0.2063,-5.07083 -0.45117,-7.37101l-0.0135,0l-2.35802,7.37101l-1.17806,0l-2.34453,-7.37101l-0.0135,0c-0.17352,2.20957 -0.28342,4.66786 -0.3297,7.37101l-1.40942,0c0.0906,-3.28929 0.32006,-6.37227 0.68447,-9.24895l1.91843,0l2.23463,6.79644l0.0116,0l2.24813,-6.79644l1.83745,0c0.40104,3.37026 0.63819,6.45518 0.71145,9.24895" stroke-width="1.928069" fill-rule="nonzero" fill="#58839f"/>
   <path id="svg_71" d="m1127.97835,868.88295c0,-1.25132 -0.69603,-1.87794 -2.08424,-1.87794l-0.64397,0l0,3.79637l0.67289,0c1.37086,0 2.05532,-0.63819 2.05532,-1.91843m1.54824,-0.15039c0,0.95825 -0.28728,1.70827 -0.86377,2.2462c-0.65747,0.62277 -1.65428,0.93319 -2.98658,0.93319l-0.4261,0l0,3.26036l-1.47883,0l0,-9.24895c0.22944,0 0.5977,-0.006 1.10864,-0.0154l1.26095,0c2.25777,0 3.38569,0.94282 3.38569,2.82462" stroke-width="1.928069" fill-rule="nonzero" fill="#58839f"/>
   <path id="svg_70" d="m1134.96741,872.1304c-0.51093,-1.84516 -0.99874,-3.46282 -1.45376,-4.85103c-0.52829,1.75455 -0.98332,3.37027 -1.35543,4.85103l2.80919,0zm2.30212,3.04249l-1.59066,0c-0.10219,-0.4396 -0.2545,-1.08165 -0.46466,-1.93193l-3.30471,0c-0.15425,0.6112 -0.295,1.25518 -0.42418,1.93193l-1.43834,0c0.73074,-3.09648 1.60801,-6.17946 2.63182,-9.25088l1.903,0c1.03152,3.02515 1.93,6.10813 2.68773,9.25088" stroke-width="1.928069" fill-rule="nonzero" fill="#58839f"/>
   <path id="svg_69" d="m1143.62907,867.08715l-2.24813,0l0,8.08632l-1.48075,0l0,-8.08632l-2.24813,0l0,-1.16456l5.97701,0l0,1.16456z" stroke-width="1.928069" fill-rule="nonzero" fill="#58839f"/>
   <path id="svg_68" d="m1144.96869,875.17251l1.48269,0l0,-9.24895l-1.48269,0l0,9.24895z" stroke-width="1.928069" fill-rule="nonzero" fill="#58839f"/>
   <path id="svg_67" d="m1153.12346,872.41864c0,-1.05851 -0.65361,-1.59065 -1.95891,-1.59065l-0.98718,0l0,3.2353c0.31042,0.0366 0.67676,0.054 1.09515,0.054c1.23396,0 1.85094,-0.56492 1.85094,-1.69863m-0.42417,-4.13956c0,-0.86763 -0.49166,-1.30145 -1.47883,-1.30145l-1.04309,0l0,2.8227l0.83679,0c0.57649,0 1.01223,-0.15811 1.31494,-0.47817c0.24679,-0.26607 0.37019,-0.61312 0.37019,-1.04308m1.98784,4.01617c0,0.86763 -0.29307,1.55788 -0.8792,2.06882c-0.64783,0.55914 -1.58295,0.83678 -2.8092,0.83678c-0.26221,0 -0.64976,-0.006 -1.15491,-0.0135c-0.50901,-0.01 -0.88113,-0.0154 -1.11828,-0.0154l0,-9.24895l2.7957,0c0.89655,0 1.57716,0.20245 2.04182,0.60349c0.42996,0.37404 0.64398,0.88498 0.64398,1.53474c0,0.98524 -0.4396,1.67164 -1.31494,2.05532c0.50901,0.0829 0.93125,0.31042 1.25902,0.68447c0.35863,0.4126 0.53601,0.91004 0.53601,1.49425" stroke-width="1.928069" fill-rule="nonzero" fill="#58839f"/>
   <path id="svg_66" d="m1160.92193,875.1727l-4.39986,0l0,-9.24895l1.48076,0l0,8.11139l2.9191,0l0,1.13756z" stroke-width="1.928069" fill-rule="nonzero" fill="#58839f"/>
   <path id="svg_65" d="m1166.93905,875.1727l-4.64665,0l0,-9.24895l4.59073,0l0,1.15106l-3.1119,0l0,2.80726l2.56433,0l0,1.11057l-2.56433,0l0,3.0155l3.16782,0l0,1.16456z" stroke-width="1.928069" fill-rule="nonzero" fill="#58839f"/>
   <path id="svg_64" d="m1153.66197,842.21023l0.75195,0l0,-2.89018l0.98717,0l0,-0.59191l-2.76485,0l0,0.59191l1.02573,0l0,2.89018z" stroke-width="1.928069" fill-rule="evenodd" fill="#58839f"/>
   <path id="svg_63" d="m1159.39412,842.21023l0.71146,0l0,-3.48209l-1.06815,0l-0.86956,2.37538l-0.94668,-2.37538l-1.02766,0l0,3.48209l0.66904,0l0,-2.64917l0.0386,0l0.99295,2.64917l0.51094,0l0.9891,-2.64917l-0.00004,2.64917z" stroke-width="1.928069" fill-rule="evenodd" fill="#58839f"/>
   <path id="svg_62" d="m1091.41849,856.70488c0,4.57338 -1.54438,8.01113 -4.62929,10.31131l-2.2327,-1.89336c0.98138,-1.15106 1.64078,-2.52577 1.97819,-4.12414c0.22559,-1.09515 0.33549,-2.61061 0.33549,-4.54639l0,-25.21915l4.54831,0l0,25.47173z" stroke-width="1.928069" fill-rule="nonzero" fill="#58839f"/>
   <path id="svg_61" d="m1107.54236,854.80939l0,-4.9667l-1.81238,0c-4.0663,0 -6.10234,1.26288 -6.10234,3.78672c0,2.19029 1.07971,3.28543 3.24108,3.28543c1.48654,0 3.04442,-0.70181 4.67364,-2.10545m4.29381,4.84138l-3.36834,0l-0.33741,-2.27319c-2.0746,1.79696 -4.23597,2.69544 -6.48217,2.69544c-4.20897,0 -6.3125,-1.93771 -6.3125,-5.80927c0,-2.21728 0.85414,-3.9429 2.56626,-5.1788c1.85288,-1.32072 4.56182,-1.98012 8.12489,-1.98012l1.51546,0l0,-1.89529c0,-2.49686 -1.44605,-3.74625 -4.33623,-3.74625c-1.88179,0 -3.9294,0.40876 -6.14668,1.22047l-0.63048,-2.65109c2.60868,-1.15106 5.26363,-1.72562 7.95521,-1.72562c4.96671,0 7.45199,2.11895 7.45199,6.35491l0,14.98881z" stroke-width="1.928069" fill-rule="nonzero" fill="#58839f"/>
   <path id="svg_60" d="m1132.88722,838.68553c-1.37471,7.74698 -3.53801,14.7343 -6.4841,20.96582l-5.34653,0l-6.44361,-20.96582l4.67557,0l3.99688,12.88143l0.88499,3.87349c2.07846,-5.72444 3.46667,-11.31005 4.16848,-16.75492l4.54832,0z" stroke-width="1.928069" fill-rule="nonzero" fill="#58839f"/>
   <path id="svg_59" d="m1146.35594,854.80939l0,-4.9667l-1.80853,0c-4.07208,0 -6.10619,1.26288 -6.10619,3.78672c0,2.19029 1.08164,3.28543 3.24301,3.28543c1.48847,0 3.04442,-0.70181 4.67171,-2.10545m4.29574,4.84138l-3.36834,0l-0.33741,-2.27319c-2.07846,1.79696 -4.2379,2.69544 -6.48217,2.69544c-4.2109,0 -6.31443,-1.93771 -6.31443,-5.80927c0,-2.21728 0.85414,-3.9429 2.56626,-5.1788c1.85288,-1.32072 4.56182,-1.98012 8.12682,-1.98012l1.51353,0l0,-1.89529c0,-2.49686 -1.44412,-3.74625 -4.3343,-3.74625c-1.8818,0 -3.9294,0.40876 -6.14668,1.22047l-0.63241,-2.65109c2.6106,-1.15106 5.26363,-1.72562 7.95714,-1.72562c4.96864,0 7.45199,2.11895 7.45199,6.35491l0,14.98881z" stroke-width="1.928069" fill-rule="nonzero" fill="#58839f"/>
   <path id="svg_58" d="m1106.55847,804.67939c0,0 -3.50331,2.03412 2.49492,2.72437c7.26689,0.82907 10.98228,0.71146 18.98955,-0.80401c0,0 2.10738,1.32073 5.04576,2.46022c-17.95225,7.69685 -40.63213,-0.44153 -26.53023,-4.38058" stroke-width="1.928069" fill-rule="nonzero" fill="#58839f"/>
   <path id="svg_57" d="m1104.36471,794.63685c0,0 -3.92941,2.90946 2.07267,3.52837c7.76241,0.80208 13.89367,0.86763 24.50384,-1.17419c0,0 1.4634,1.48654 3.77323,2.29825c-21.70621,6.35299 -45.88227,0.5013 -30.34974,-4.65243" stroke-width="1.928069" fill-rule="nonzero" fill="#58839f"/>
   <path id="svg_56" d="m1146.60428,812.10381c0,0 2.59325,2.1363 -2.85933,3.79252c-10.36144,3.13696 -43.12899,4.08558 -52.2314,0.12146c-3.27001,-1.42098 2.86511,-3.39725 4.79511,-3.81179c2.0129,-0.43381 3.16396,-0.35669 3.16396,-0.35669c-3.64212,-2.56433 -23.52245,5.03419 -10.10116,7.21098c36.60633,5.9346 66.7247,-2.67423 57.23282,-6.95648" stroke-width="1.928069" fill-rule="nonzero" fill="#58839f"/>
   <path id="svg_55" d="m1108.24476,784.23222c0,0 -16.66816,3.96218 -5.90182,5.40052c4.54446,0.60542 13.60446,0.46659 22.04554,-0.23908c6.89863,-0.58035 13.82426,-1.82203 13.82426,-1.82203c0,0 -2.43129,1.04695 -4.18969,2.24428c-16.93038,4.45384 -49.62273,2.37924 -40.21182,-2.17101c7.961,-3.85035 14.43353,-3.41268 14.43353,-3.41268" stroke-width="1.928069" fill-rule="nonzero" fill="#58839f"/>
   <path id="svg_54" d="m1138.14622,800.94492c17.20224,-8.94239 9.25088,-17.53001 3.69611,-16.3751c-1.35929,0.28536 -1.97049,0.53022 -1.97049,0.53022c0,0 0.50708,-0.79436 1.47112,-1.1337c10.98807,-3.86192 19.43687,11.38718 -3.54379,17.42975c0,0 0.26607,-0.23716 0.34705,-0.45117" stroke-width="1.928069" fill-rule="nonzero" fill="#58839f"/>
   <path id="svg_53" d="m1109.93529,825.17419c16.51584,1.05659 41.87574,-0.58806 42.48115,-8.40252c0,0 -1.15684,2.96344 -13.65266,5.31761c-14.09419,2.6511 -31.48344,2.33875 -41.7909,0.64012c0,0 2.10738,1.74876 12.96241,2.44479" stroke-width="1.928069" fill-rule="nonzero" fill="#58839f"/>
  </g>
 </g>
 <g id="svg_343" stroke="null">
  <title>VB.NET</title>
  <text id="svg_6" fill="#212529" font-weight="900" font-size="34" font-family="'Segoe UI', 'Trebuchet MS', sans-serif" text-anchor="start" xml:space="preserve" x="522" y="259">VB</text>
  <text id="svg_7" fill="#212529" font-size="32" font-family="'Segoe UI', 'Trebuchet MS', sans-serif" text-anchor="start" xml:space="preserve" x="540" y="279">.net</text>
 </g>

 <g id="svg_852" stroke="null">
  <title>HTML5</title>
  <path d="m26.11008,412.29332l3.4515,0l0,3.42149l3.18138,0l0,-3.42149l3.4515,0l0,10.35451l-3.4515,0l0,-3.45151l-3.15137,0l0,3.45151l-3.48151,0m14.64636,-6.90301l-3.04632,0l0,-3.4515l9.55916,0l0,3.4515l-3.06133,0l0,6.90301l-3.45151,0m8.0285,-10.35451l3.61657,0l2.22096,3.64659l2.22097,-3.64659l3.61657,0l0,10.35451l-3.4515,0l0,-5.13224l-2.41605,3.72162l-2.41605,-3.72162l0,5.13224l-3.39147,0m13.38582,-10.35451l3.4515,0l0,6.93302l4.89212,0l0,3.42149l-8.34362,0" id="svg_847" stroke="null"/>
  <path fill="#e44d26" d="m25.99002,482.97406l-4.95215,-55.58417l54.44368,0l-4.95216,55.55416l-22.3147,6.18268" id="svg_848" stroke="null"/>
  <path fill="#f16529" d="m48.25971,484.39968l0,-52.44781l22.25468,0l-4.24685,47.42062" id="svg_849" stroke="null"/>
  <path fill="#ebebeb" d="m31.15227,438.74983l17.10744,0l0,6.81296l-9.63419,0l0.63027,6.97803l9.00392,0l0,6.79796l-15.24663,0m0.30013,3.42149l6.84297,0l0.48021,5.44737l7.62332,2.04089l0,7.11309l-13.98609,-3.9017" id="svg_850" stroke="null"/>
  <path fill="#fff" d="m65.30712,438.74983l-17.07743,0l0,6.81296l16.44716,0m-0.61527,6.97803l-15.83189,0l0,6.81297l8.40366,0l-0.79535,8.85385l-7.60831,2.04089l0,7.08308l13.95607,-3.87169" id="svg_851" stroke="null"/>
 </g>
 <g id="for">
  <text id="svg_10" fill="#414042" font-weight="lighter" font-size="16" font-family="'Segoe UI', sans-serif" x="123" y="430">for</text>
 </g>
 <g id="svg_402" stroke="null">
  <title>iOS</title>
  <text id="svg_10" fill="#414042" font-weight="lighter" font-size="60" font-family="'Segoe UI', sans-serif" text-anchor="start" x="120" y="480">iOS</text>
 </g>
 <g stroke="null">
  <title>Windows</title>
  <!-- <circle cx="427" cy="457" r="34" fill="#0078D7" style="opacity:0.1" /> -->
  <text id="svg_11" fill="#0078D7" font-weight="lighter" font-size="60" font-family="'Segoe UI', sans-serif" text-anchor="start" xml:space="preserve" y="480" x="350">UWP</text>
 </g>
 <g id="svg_214" stroke="null">
  <title>Desktop</title>
  <g transform="matrix(0.03715277719079869,0,0,-0.03715277719079869,149.77687440611652,-825.110617343378) " id="svg_210" stroke="null">
   <path d="m11664.21555,-34670.86686l0,832q0,13 -9.5,22.5q-9.5,9.5 -22.5,9.5l-1600,0q-13,0 -22.5,-9.5q-9.5,-9.5 -9.5,-22.5l0,-832q0,-13 9.5,-22.5q9.5,-9.5 22.5,-9.5l1600,0q13,0 22.5,9.5q9.5,9.5 9.5,22.5zm128,832l0,-1088q0,-66 -47,-113q-47,-47 -113,-47l-544,0q0,-37 16,-77.5q16,-40.5 32,-71q16,-30.5 16,-43.5q0,-26 -19,-45q-19,-19 -45,-19l-512,0q-26,0 -45,19q-19,19 -19,45q0,14 16,44q16,30 32,70q16,40 16,78l-544,0q-66,0 -113,47q-47,47 -47,113l0,1088q0,66 47,113q47,47 113,47l1600,0q66,0 113,-47q47,-47 47,-113z" id="svg_211" fill="#414042" stroke="null"/>
  </g>
 </g>
 <g>
  <title>background</title>
  <rect fill="none" id="canvas_background" height="402" width="582" y="-1" x="-1"/>
 </g>
</svg>