<?xml version="1.0" encoding="UTF-8" standalone="no"?>
<!DOCTYPE svg PUBLIC "-//W3C//DTD SVG 1.1//EN" "http://www.w3.org/Graphics/SVG/1.1/DTD/svg11.dtd">
<svg width="100%" height="100%" viewBox="0 0 600 600" version="1.1" xmlns="http://www.w3.org/2000/svg" xmlns:xlink="http://www.w3.org/1999/xlink" xml:space="preserve" xmlns:serif="http://www.serif.com/" style="fill-rule:evenodd;clip-rule:evenodd;stroke-linecap:round;stroke-linejoin:round;stroke-miterlimit:1.5;">
    <g id="background" transform="matrix(9.28957,0,0,15.3248,-1123.55,-2006.37)">
        <rect x="120.948" y="130.923" width="64.589" height="39.152" style="fill:white;stroke:black;stroke-width:0.08px;"/>
    </g>
    <g id="Python-logo-notext.svg" transform="matrix(0.583637,0,0,0.583637,42.8927,217.373)">
        <g transform="matrix(1,0,0,1,-55.2105,-54.9231)">
            <clipPath id="_clip1">
                <rect x="0" y="0" width="110.421" height="109.846"/>
            </clipPath>
            <g clip-path="url(#_clip1)">
                <g transform="matrix(1,0,0,1,-44.9375,-67.4688)">
                    <g id="Calque-1" serif:id="Calque 1">
                        <g id="g1894">
                            <path id="path8615" d="M99.75,67.469C71.718,67.469 73.469,79.625 73.469,79.625L73.5,92.219L100.25,92.219L100.25,96L62.875,96C62.875,96 44.938,93.966 44.938,122.25C44.937,150.534 60.594,149.531 60.594,149.531L69.938,149.531L69.938,136.406C69.938,136.406 69.434,120.75 85.344,120.75L111.875,120.75C111.875,120.75 126.781,120.991 126.781,106.344L126.781,82.125C126.781,82.125 129.044,67.469 99.75,67.469ZM85,75.938C87.661,75.937 89.813,78.089 89.813,80.75C89.813,83.411 87.661,85.563 85,85.563C82.339,85.563 80.188,83.411 80.188,80.75C80.187,78.089 82.339,75.938 85,75.938Z" style="fill:url(#_Linear2);fill-rule:nonzero;"/>
                            <path id="path8620" d="M100.546,177.315C128.578,177.315 126.827,165.159 126.827,165.159L126.796,152.565L100.046,152.565L100.046,148.784L137.421,148.784C137.421,148.784 155.359,150.818 155.359,122.534C155.359,94.249 139.702,95.252 139.702,95.252L130.359,95.252L130.359,108.377C130.359,108.377 130.862,124.034 114.952,124.034L88.421,124.034C88.421,124.034 73.515,123.793 73.515,138.44L73.515,162.659C73.515,162.659 71.252,177.315 100.546,177.315ZM115.296,168.846C112.635,168.846 110.484,166.695 110.484,164.034C110.484,161.372 112.635,159.221 115.296,159.221C117.958,159.221 120.109,161.372 120.109,164.034C120.109,166.695 117.958,168.846 115.296,168.846Z" style="fill:url(#_Linear3);fill-rule:nonzero;"/>
                        </g>
                    </g>
                </g>
            </g>
        </g>
    </g>
    <g id="svg_1" transform="matrix(1,0,0,1,10,52)">
        <text x="0px" y="0px" style="font-family:'ArialMT', 'Arial', sans-serif;font-size:46px;fill:rgb(81,43,212);">C#</text>
    </g>
    <g id="svg_11" serif:id="svg_1" transform="matrix(1,0,0,1,524.214,257.98)">
        <text x="0px" y="0px" style="font-family:'ArialMT', 'Arial', sans-serif;font-size:46px;fill:rgb(55,139,186);">F#</text>
    </g>
    <g id="svg_20" transform="matrix(1.35429,0,0,1.35429,-102.817,-44.8788)">
        <path id="svg_19" d="M210.467,172.338C250.823,177.377 345.663,222.87 360.63,286.937L166.998,286.937C216.147,282.936 258.134,219.265 210.467,172.338ZM226.273,97.257C242.228,114.842 249.835,138.7 249.193,163.25C290.142,179.896 351.591,224.352 364.582,286.937L412.002,286.937C391.898,180.192 277.052,104.913 226.273,97.257Z" style="fill:rgb(33,37,41);fill-rule:nonzero;"/>
    </g>
    <g id="svg_13" transform="matrix(1,0,0,1,-0.249407,55.8354)">
        <rect id="svg_14" x="0" y="310" width="600" height="80" style="fill:rgb(0,120,215);"/>
    </g>
    <g id="svg_21" transform="matrix(1,0,0,1,7.33164,419.79)">
        <text x="0px" y="0px" style="font-family:'SegoeUI', 'Segoe UI', sans-serif;font-size:36px;fill:white;">T<tspan x="16.875px 34.295px " y="0px 0px ">yp</tspan>ed APIs, fast with C# Serv<tspan x="456.469px " y="0px ">i</tspan>ceS<tspan x="518.607px 530.807px " y="0px 0px ">ta</tspan>ck</text>
    </g>
    <g transform="matrix(0.181587,0,0,-0.181587,-1529.81,-1011.91)">
        <g id="svg_133">
            <g id="svg_108">
                <g id="svg_109">
                    <g id="svg_110">
                        <g id="svg_128">
                            <path id="svg_129" d="M9808.79,-8701.83C9791.63,-8701.84 9777.69,-8687.89 9777.69,-8670.73L9777.68,-8575.51C9777.68,-8558.38 9791.61,-8544.42 9808.75,-8544.42C9817.08,-8544.41 9824.88,-8547.65 9830.76,-8553.52C9836.64,-8559.39 9839.87,-8567.2 9839.88,-8575.5L9839.87,-8670.73C9839.89,-8679.02 9836.67,-8686.83 9830.79,-8692.7C9824.93,-8698.59 9817.1,-8701.83 9808.79,-8701.83" style="fill:white;fill-rule:nonzero;"/>
                        </g>
                        <g id="svg_126">
                            <path id="svg_127" d="M9808.76,-8552.78C9796.21,-8552.77 9786.03,-8562.97 9786.03,-8575.51L9786.05,-8670.73C9786.05,-8683.31 9796.24,-8693.47 9808.78,-8693.49C9821.35,-8693.47 9831.53,-8683.31 9831.51,-8670.73L9831.52,-8575.5C9831.51,-8562.96 9821.32,-8552.77 9808.76,-8552.78" style="fill:white;fill-rule:nonzero;"/>
                        </g>
                        <g id="svg_124">
                            <path id="svg_125" d="M10052.7,-8557.49L10044.3,-8557.49L9839.49,-8557.51L9831.13,-8557.52L9831.13,-8549.16C9831.11,-8514.84 9849.81,-8482.92 9880.43,-8464.06L9868.53,-8442.32C9867.07,-8439.77 9866.7,-8436.55 9867.55,-8433.6C9868.41,-8430.65 9870.44,-8428.12 9873.17,-8426.67C9874.75,-8425.77 9876.67,-8425.27 9878.62,-8425.28C9882.84,-8425.28 9886.7,-8427.57 9888.74,-8431.27L9901.2,-8453.97C9914.1,-8449.24 9927.71,-8446.82 9941.78,-8446.83C9956.04,-8446.82 9969.73,-8449.24 9982.68,-8453.99L9995.12,-8431.25C9997.12,-8427.56 10001,-8425.26 10005.2,-8425.26C10007.1,-8425.26 10009,-8425.72 10010.7,-8426.62C10013.5,-8428.16 10015.4,-8430.6 10016.3,-8433.58C10017.1,-8436.53 10016.8,-8439.65 10015.3,-8442.35L10003.4,-8464.07C10034,-8482.97 10052.7,-8514.87 10052.7,-8549.13L10052.7,-8557.49Z" style="fill:white;fill-rule:nonzero;"/>
                        </g>
                        <g id="svg_122">
                            <path id="svg_123" d="M9988.56,-8512.04C9983.82,-8512.05 9979.96,-8508.21 9979.97,-8503.45C9979.97,-8498.75 9983.82,-8494.87 9988.56,-8494.85C9993.27,-8494.86 9997.13,-8498.75 9997.13,-8503.46C9997.13,-8508.2 9993.29,-8512.04 9988.56,-8512.04M9895.3,-8512.06C9890.58,-8512.05 9886.74,-8508.21 9886.74,-8503.48C9886.74,-8498.76 9890.58,-8494.88 9895.31,-8494.88C9900.06,-8494.88 9903.9,-8498.76 9903.9,-8503.47C9903.91,-8508.21 9900.06,-8512.05 9895.3,-8512.06M9992.12,-8467.27L10008,-8438.29C10008.8,-8436.78 10008.3,-8434.84 10006.8,-8434C10005.2,-8433.17 10003.3,-8433.74 10002.5,-8435.26L9986.43,-8464.53C9972.94,-8458.54 9957.84,-8455.17 9941.88,-8455.19C9925.95,-8455.18 9910.88,-8458.53 9897.43,-8464.5L9881.39,-8435.29C9880.56,-8433.75 9878.63,-8433.19 9877.12,-8434.04C9875.58,-8434.86 9875.01,-8436.8 9875.87,-8438.31L9891.74,-8467.26C9860.55,-8483.35 9839.47,-8513.99 9839.49,-8549.16L10044.3,-8549.14C10044.3,-8513.97 10023.3,-8483.4 9992.12,-8467.27" style="fill:white;fill-rule:nonzero;"/>
                        </g>
                        <g id="svg_120">
                            <path id="svg_121" d="M9903.88,-8810.35C9886.74,-8810.35 9872.79,-8796.41 9872.79,-8779.26L9872.78,-8737.24L9864.61,-8737.24C9855.89,-8737.25 9847.7,-8733.85 9841.54,-8727.69C9835.38,-8721.54 9831.98,-8713.34 9831.99,-8704.61L9831.96,-8557.08L9831.96,-8548.71L9840.32,-8548.72L10043.6,-8548.68L10052,-8548.68L10052,-8557.04L10052,-8704.59C10052,-8722.58 10037.3,-8737.22 10019.4,-8737.22L10011.1,-8737.23L10011.1,-8779.24C10011.1,-8796.38 9997.2,-8810.33 9980.07,-8810.33C9971.76,-8810.35 9963.97,-8807.12 9958.08,-8801.24C9952.19,-8795.36 9948.95,-8787.56 9948.95,-8779.26L9948.95,-8737.23L9934.98,-8737.23L9934.98,-8779.25C9934.97,-8796.4 9921.03,-8810.36 9903.88,-8810.35" style="fill:white;fill-rule:nonzero;"/>
                        </g>
                        <g id="svg_118">
                            <path id="svg_119" d="M9840.36,-8704.61C9840.35,-8718.05 9851.19,-8728.89 9864.62,-8728.89L9881.14,-8728.89L9881.16,-8779.27C9881.15,-8791.81 9891.34,-8802.01 9903.88,-8802.01C9916.44,-8802.01 9926.62,-8791.8 9926.61,-8779.25L9926.61,-8728.88L9957.31,-8728.88L9957.3,-8779.26C9957.32,-8791.8 9967.52,-8802 9980.05,-8801.98C9992.61,-8801.99 10002.8,-8791.78 10002.8,-8779.23L10002.8,-8728.87L10019.4,-8728.87C10032.7,-8728.87 10043.6,-8718 10043.6,-8704.59L10043.6,-8557.03L9840.32,-8557.07L9840.36,-8704.61Z" style="fill:white;fill-rule:nonzero;"/>
                        </g>
                        <g id="svg_116">
                            <path id="svg_117" d="M10075.1,-8701.79C10058,-8701.8 10044,-8687.86 10044,-8670.71L10044,-8575.49C10044,-8558.34 10057.9,-8544.39 10075.1,-8544.39C10092.2,-8544.38 10106.2,-8558.33 10106.2,-8575.48L10106.2,-8670.69C10106.2,-8687.83 10092.3,-8701.8 10075.1,-8701.79" style="fill:white;fill-rule:nonzero;"/>
                        </g>
                        <g id="svg_114">
                            <path id="svg_115" d="M10075.1,-8552.75C10062.6,-8552.74 10052.4,-8562.93 10052.4,-8575.49L10052.4,-8670.7C10052.4,-8683.27 10062.6,-8693.44 10075.1,-8693.44C10087.7,-8693.43 10097.8,-8683.27 10097.9,-8670.69L10097.8,-8575.48C10097.8,-8562.92 10087.7,-8552.74 10075.1,-8552.75" style="fill:white;fill-rule:nonzero;"/>
                        </g>
                        <g id="svg_112">
                            <path id="svg_113" d="M10097.8,-8575.48C10097.8,-8562.92 10087.7,-8552.74 10075.1,-8552.75C10062.6,-8552.74 10052.4,-8562.93 10052.4,-8575.49L10052.4,-8670.7C10052.4,-8683.27 10062.6,-8693.43 10075.1,-8693.44C10087.7,-8693.43 10097.9,-8683.27 10097.9,-8670.69L10097.8,-8575.48ZM9840.33,-8557.07L9840.36,-8704.62C9840.35,-8718.05 9851.2,-8728.88 9864.62,-8728.88L9881.14,-8728.89L9881.16,-8779.27C9881.16,-8791.81 9891.35,-8802.01 9903.88,-8802.01C9916.44,-8802.01 9926.62,-8791.8 9926.62,-8779.25L9926.61,-8728.88L9957.31,-8728.88L9957.32,-8779.25C9957.32,-8791.79 9967.52,-8802 9980.05,-8801.98C9992.61,-8801.99 10002.8,-8791.78 10002.8,-8779.23L10002.8,-8728.87L10019.4,-8728.86C10032.7,-8728.86 10043.6,-8718.01 10043.6,-8704.59L10043.6,-8557.03L9840.33,-8557.07ZM9988.56,-8512.04C9983.82,-8512.05 9979.97,-8508.21 9979.97,-8503.45C9979.99,-8498.75 9983.82,-8494.87 9988.56,-8494.85C9993.27,-8494.86 9997.13,-8498.75 9997.13,-8503.46C9997.14,-8508.2 9993.29,-8512.04 9988.56,-8512.04M9895.3,-8512.06C9890.58,-8512.05 9886.74,-8508.21 9886.74,-8503.48C9886.74,-8498.76 9890.58,-8494.88 9895.31,-8494.88C9900.06,-8494.88 9903.9,-8498.76 9903.9,-8503.47C9903.91,-8508.21 9900.06,-8512.05 9895.3,-8512.06M9992.12,-8467.27L10008,-8438.29C10008.8,-8436.78 10008.3,-8434.85 10006.7,-8434C10005.2,-8433.18 10003.3,-8433.73 10002.5,-8435.26L9986.44,-8464.54C9972.94,-8458.54 9957.85,-8455.17 9941.88,-8455.19C9925.95,-8455.18 9910.87,-8458.53 9897.43,-8464.5L9881.39,-8435.29C9880.55,-8433.75 9878.63,-8433.19 9877.12,-8434.03C9875.57,-8434.86 9875.01,-8436.8 9875.87,-8438.31L9891.74,-8467.26C9860.55,-8483.35 9839.47,-8513.99 9839.49,-8549.16L10044.3,-8549.14C10044.3,-8513.97 10023.3,-8483.4 9992.12,-8467.27M9808.76,-8552.78C9796.21,-8552.77 9786.03,-8562.97 9786.03,-8575.51L9786.05,-8670.73C9786.05,-8683.31 9796.23,-8693.47 9808.79,-8693.47C9821.35,-8693.47 9831.53,-8683.31 9831.51,-8670.73L9831.52,-8575.5C9831.51,-8562.96 9821.32,-8552.77 9808.76,-8552.78" style="fill:rgb(164,196,57);fill-rule:nonzero;"/>
                        </g>
                    </g>
                </g>
            </g>
        </g>
    </g>
    <g id="svg_2" transform="matrix(1,0,0,1,90,46)">
        <text x="0px" y="0px" style="font-family:'SegoeUI', 'Segoe UI', sans-serif;font-size:38px;fill:rgb(0,122,204);">T<tspan x="17.813px 36.2px " y="0px 0px ">yp</tspan>e</text>
    </g>
    <g id="svg_3" transform="matrix(1,0,0,1,167,46)">
        <text x="0px" y="0px" style="font-family:'SegoeUI', 'Segoe UI', sans-serif;font-size:38px;fill:rgb(0,122,204);">Script</text>
    </g>
    <g id="svg_222" transform="matrix(0.65841,0,0,0.65841,307.907,-541.311)">
        <g id="svg_223">
            <path id="svg_224" d="M15.925,857.611L15.925,855.811C15.925,854.511 15.825,853.211 15.625,851.911C15.425,850.611 15.025,849.411 14.425,848.211C13.825,847.011 13.025,846.011 12.125,845.011C11.225,844.111 10.125,843.311 8.925,842.711C7.725,842.111 6.525,841.711 5.225,841.511C3.925,841.311 2.625,841.211 1.325,841.211L-29.675,841.211C-30.675,841.211 -31.675,841.311 -32.575,841.511C-33.575,841.711 -34.475,841.911 -35.375,842.311C-35.675,842.411 -35.975,842.611 -36.275,842.711C-37.175,843.111 -37.975,843.711 -38.675,844.311C-38.875,844.511 -39.175,844.711 -39.375,845.011C-40.275,845.911 -41.075,847.011 -41.675,848.211C-42.275,849.411 -42.675,850.611 -42.875,851.911C-43.075,853.211 -43.175,854.511 -43.175,855.811L-43.175,885.911C-43.175,887.211 -43.075,888.511 -42.875,889.811C-42.675,891.111 -42.275,892.311 -41.675,893.511C-41.075,894.711 -40.275,895.711 -39.375,896.711C-38.475,897.611 -37.375,898.411 -36.175,899.011C-34.975,899.611 -33.775,900.011 -32.475,900.211C-31.175,900.411 -29.875,900.511 -28.575,900.511L1.425,900.511C2.725,900.511 4.025,900.411 5.325,900.211C6.625,900.011 7.825,899.611 9.025,899.011C10.225,898.411 11.225,897.611 12.225,896.711C13.125,895.811 13.925,894.711 14.525,893.511C15.125,892.311 15.525,891.111 15.725,889.811C15.925,888.511 16.025,887.211 16.025,885.911L16.025,859.811C15.925,859.011 15.925,858.311 15.925,857.611Z" style="fill:rgb(240,81,56);fill-rule:nonzero;"/>
            <path id="svg_228" d="M3.625,877.811C3.725,877.611 3.725,877.311 3.825,877.111C6.325,867.311 0.225,855.711 -9.875,849.611C-5.375,855.611 -3.475,863.011 -5.175,869.411C-5.375,870.011 -5.475,870.511 -5.775,871.111C-5.975,871.011 -6.275,870.811 -6.675,870.611C-6.675,870.611 -16.775,864.311 -27.775,853.311C-28.075,853.011 -21.875,862.111 -14.975,869.411C-18.275,867.611 -27.375,860.911 -33.175,855.611C-32.475,856.811 -31.575,857.911 -30.675,859.011C-25.875,865.111 -19.575,872.711 -11.975,878.511C-17.275,881.711 -24.775,882.011 -32.275,878.511C-34.075,877.611 -35.875,876.611 -37.475,875.411C-34.275,880.511 -29.475,884.811 -23.475,887.411C-16.375,890.411 -9.375,890.211 -4.175,887.511L-4.075,887.511C-3.875,887.411 -3.675,887.311 -3.475,887.111C-0.975,885.811 4.025,884.511 6.725,889.711C7.325,890.811 8.725,884.011 3.625,877.811Z" style="fill:white;fill-rule:nonzero;"/>
        </g>
        <g id="svg_229">
            <path id="svg_230" d="M35.725,894.711C37.025,895.611 38.525,896.311 40.225,896.911C41.925,897.411 43.725,897.711 45.625,897.711C49.025,897.711 51.725,896.811 53.725,895.111C55.625,893.311 56.625,891.011 56.625,888.111C56.625,885.511 55.925,883.411 54.525,881.711C53.125,880.111 50.725,878.611 47.425,877.211C43.825,875.911 41.025,874.311 38.925,872.311C36.825,870.311 35.725,867.711 35.725,864.511C35.725,862.811 36.025,861.211 36.725,859.811C37.425,858.411 38.325,857.111 39.425,856.111C40.525,855.111 42.025,854.311 43.625,853.711C45.225,853.111 47.025,852.811 48.925,852.811C51.125,852.811 53.025,853.011 54.525,853.511C56.025,854.011 57.225,854.411 57.925,854.911L56.725,857.611C56.125,857.111 55.025,856.711 53.725,856.211C52.325,855.711 50.725,855.511 48.825,855.511C47.025,855.511 45.425,855.811 44.225,856.311C42.925,856.811 41.925,857.511 41.225,858.311C40.425,859.111 39.925,860.011 39.625,861.011C39.325,862.011 39.125,862.911 39.125,863.911C39.125,866.511 39.925,868.511 41.425,870.011C42.925,871.511 45.325,872.911 48.625,874.211C50.525,875.011 52.125,875.811 53.625,876.711C55.025,877.611 56.225,878.511 57.225,879.611C58.225,880.711 58.925,881.811 59.425,883.211C59.925,884.511 60.125,886.011 60.125,887.711C60.125,889.411 59.825,891.011 59.225,892.511C58.625,894.011 57.725,895.411 56.525,896.611C55.325,897.811 53.825,898.711 52.025,899.411C50.225,900.111 48.125,900.411 45.725,900.411C44.725,900.411 43.725,900.311 42.725,900.211C41.725,900.011 40.725,899.811 39.725,899.511C38.725,899.211 37.825,898.911 37.025,898.511C36.225,898.111 35.425,897.711 34.825,897.311L35.725,894.711Z" style="fill-rule:nonzero;"/>
            <path id="svg_231" d="M65.825,866.811L71.225,885.511C71.825,887.411 72.325,889.211 72.725,890.911C73.225,892.611 73.625,894.211 73.925,895.811L74.125,895.811C74.525,894.211 75.025,892.611 75.525,890.911C76.125,889.211 76.625,887.411 77.325,885.411L83.825,866.711L86.825,866.711L93.025,885.211C93.625,887.211 94.225,889.111 94.825,890.811C95.425,892.511 95.825,894.211 96.225,895.711L96.425,895.711C96.725,894.111 97.125,892.511 97.625,890.811C98.125,889.211 98.625,887.311 99.325,885.211L105.125,866.611L108.425,866.611L97.625,899.611L94.825,899.611L88.725,881.211C88.025,879.211 87.425,877.411 86.825,875.611C86.225,873.811 85.825,872.011 85.425,870.111L85.325,870.111C84.825,872.111 84.225,874.011 83.725,875.811C83.125,877.611 82.525,879.511 81.825,881.411L75.325,899.711L72.525,899.711L62.525,866.711L65.825,866.811Z" style="fill-rule:nonzero;"/>
            <path id="svg_232" d="M114.025,856.811C114.025,856.011 114.325,855.411 114.825,854.811C115.325,854.211 116.025,854.011 116.825,854.011C117.625,854.011 118.225,854.311 118.825,854.811C119.325,855.311 119.625,856.011 119.625,856.811C119.625,857.611 119.325,858.211 118.825,858.811C118.225,859.311 117.625,859.611 116.825,859.611C116.025,859.611 115.425,859.311 114.825,858.811C114.325,858.211 114.025,857.611 114.025,856.811ZM115.225,899.811L115.225,866.811L118.425,866.811L118.425,899.811L115.225,899.811Z" style="fill-rule:nonzero;"/>
            <path id="svg_233" d="M131.625,899.811L131.625,869.411L126.925,869.411L126.925,866.911L131.625,866.911L131.625,865.011C131.625,862.911 131.825,861.011 132.125,859.211C132.525,857.411 133.125,855.911 133.925,854.611C134.725,853.311 135.925,852.311 137.225,851.511C138.625,850.711 140.325,850.411 142.325,850.411C143.425,850.411 144.325,850.511 145.125,850.711C145.925,850.911 146.625,851.211 147.125,851.511L146.125,854.011C145.625,853.811 145.125,853.611 144.525,853.411C143.925,853.211 143.125,853.111 142.125,853.111C140.525,853.111 139.325,853.411 138.425,854.111C137.525,854.711 136.725,855.611 136.225,856.711C135.725,857.811 135.325,859.011 135.125,860.511C134.925,862.011 134.825,863.511 134.825,865.011L134.825,866.911L150.525,866.911L150.525,869.411L134.925,869.411L134.925,899.811L131.625,899.811Z" style="fill-rule:nonzero;"/>
            <path id="svg_234" d="M152.825,859.511L152.825,866.911L161.925,866.911L161.925,869.411L152.825,869.411L152.825,890.911C152.825,893.111 153.225,894.811 153.925,896.011C154.625,897.211 155.825,897.811 157.625,897.811C158.425,897.811 159.125,897.811 159.725,897.711C160.325,897.611 160.825,897.511 161.225,897.411L161.525,899.911C160.425,900.411 158.925,900.711 157.125,900.711C155.625,900.711 154.325,900.411 153.425,899.911C152.425,899.411 151.725,898.711 151.125,897.811C150.525,896.911 150.125,895.811 149.925,894.611C149.725,893.311 149.625,892.011 149.625,890.511L149.625,869.611L149.825,869.611L149.825,867.111L149.625,867.111L149.625,861.011L152.825,859.511Z" style="fill-rule:nonzero;"/>
        </g>
    </g>
    <g id="svg_151" transform="matrix(0.321449,0,0,0.321449,-927.03,-102.73)">
        <g id="svg_143">
            <g id="svg_152">
                <path id="svg_149" d="M4357.76,373.043L4380.18,373.043L4380.18,417.582L4421.52,373.043L4448.59,373.043L4407.11,416.272L4450.48,474.929L4423.55,474.929L4391.97,431.555L4380.18,443.781L4380.18,474.929L4357.76,474.929L4357.76,373.043Z" style="fill:rgb(35,31,32);fill-rule:nonzero;"/>
                <path id="svg_148" d="M4438.57,436.358L4438.57,436.067C4438.57,413.652 4456.62,395.458 4480.92,395.458C4505.09,395.458 4522.99,413.361 4522.99,435.776L4522.99,436.067C4522.99,458.483 4504.94,476.676 4480.63,476.676C4456.47,476.676 4438.57,458.773 4438.57,436.358ZM4501.15,436.358L4501.15,436.067C4501.15,424.568 4492.86,414.525 4480.63,414.525C4467.97,414.525 4460.4,424.277 4460.4,435.776L4460.4,436.067C4460.4,447.566 4468.7,457.609 4480.92,457.609C4493.59,457.609 4501.15,447.857 4501.15,436.358Z" style="fill:rgb(35,31,32);fill-rule:nonzero;"/>
                <path id="svg_147" d="M4529.1,452.805L4529.1,415.835L4519.78,415.835L4519.78,396.913L4529.1,396.913L4529.1,376.972L4551.22,376.972L4551.22,396.913L4569.56,396.913L4569.56,415.835L4551.22,415.835L4551.22,449.167C4551.22,454.261 4553.4,456.736 4558.35,456.736C4562.43,456.736 4566.07,455.717 4569.27,453.969L4569.27,471.727C4564.61,474.493 4559.23,476.239 4551.8,476.239C4538.27,476.239 4529.1,470.854 4529.1,452.805Z" style="fill:rgb(35,31,32);fill-rule:nonzero;"/>
                <path id="svg_146" d="M4575.91,368.676L4598.03,368.676L4598.03,474.929L4575.91,474.929L4575.91,368.676Z" style="fill:rgb(35,31,32);fill-rule:nonzero;"/>
                <path id="svg_145" d="M4606.03,368.676L4629.32,368.676L4629.32,388.325L4606.03,388.325L4606.03,368.676ZM4606.61,396.913L4628.74,396.913L4628.74,474.929L4606.61,474.929L4606.61,396.913Z" style="fill:rgb(35,31,32);fill-rule:nonzero;"/>
                <path id="svg_144" d="M4637.15,396.913L4659.28,396.913L4659.28,407.975C4664.37,401.425 4670.92,395.458 4682.13,395.458C4698.87,395.458 4708.62,406.52 4708.62,424.423L4708.62,474.929L4686.5,474.929L4686.5,431.409C4686.5,420.93 4681.55,415.544 4673.11,415.544C4664.66,415.544 4659.28,420.93 4659.28,431.409L4659.28,474.929L4637.15,474.929L4637.15,396.913Z" style="fill:rgb(35,31,32);fill-rule:nonzero;"/>
            </g>
        </g>
        <g id="svg_155">
            <path id="svg_156" d="M4274.23,372.991L4223.08,426.777L4223.08,474.86L4274.15,423.699L4324.95,372.991L4274.23,372.991Z" style="fill:url(#_Linear4);fill-rule:nonzero;"/>
            <path id="svg_139" d="M4223.08,474.861L4274.15,423.699L4324.95,474.861L4223.08,474.861Z" style="fill:url(#_Linear5);fill-rule:nonzero;"/>
            <path id="svg_157" d="M4223.08,372.991L4274.23,372.991L4223.08,426.777L4223.08,372.991Z" style="fill:url(#_Linear6);fill-rule:nonzero;"/>
        </g>
    </g>
    <g id="svg_296" transform="matrix(0.101733,0,0,0.101733,-19.7347,-64.8337)">
        <rect x="295.348" y="1452.61" width="630" height="630" style="fill:rgb(247,223,30);"/>
    </g>
    <g id="svg_297" transform="matrix(1,0,0,1,-5.9019,-20.532)">
        <path d="M59.267,153.548C60.558,155.656 62.238,157.205 65.208,157.205C67.704,157.205 69.298,155.958 69.298,154.235C69.298,152.17 67.66,151.438 64.913,150.237L63.408,149.591C59.062,147.739 56.175,145.42 56.175,140.516C56.175,135.999 59.616,132.561 64.995,132.561C68.824,132.561 71.577,133.893 73.561,137.383L68.871,140.394C67.838,138.543 66.724,137.813 64.995,137.813C63.231,137.813 62.113,138.932 62.113,140.394C62.113,142.201 63.232,142.932 65.816,144.051L67.321,144.696C72.439,146.891 75.328,149.128 75.328,154.157C75.328,159.58 71.068,162.55 65.348,162.55C59.754,162.55 56.141,159.885 54.373,156.392L59.267,153.548ZM37.992,154.07C38.938,155.749 39.799,157.168 41.868,157.168C43.847,157.168 45.095,156.394 45.095,153.383L45.095,132.904L51.117,132.904L51.117,153.465C51.117,159.701 47.461,162.539 42.124,162.539C37.302,162.539 34.509,160.044 33.089,157.038L37.992,154.07Z" style="fill-rule:nonzero;"/>
    </g>
    <g id="svg_289" transform="matrix(0.574961,0,0,0.574961,270.887,284.109)">
        <path d="M-453.866,50.13L-397.866,-5.87L-397.866,22.13L-425.866,50.13L-397.866,78.13L-397.866,106.13L-453.866,50.13Z" style="fill:rgb(55,139,186);fill-rule:nonzero;"/>
    </g>
    <g id="svg_290" transform="matrix(0.574961,0,0,0.574961,270.887,284.109)">
        <path d="M-417.866,50.13L-397.866,30.13L-397.866,70.13L-417.866,50.13Z" style="fill:rgb(55,139,186);fill-rule:nonzero;"/>
    </g>
    <g id="svg_291" transform="matrix(0.574961,0,0,0.574961,270.887,284.109)">
        <path d="M-335.866,50.13L-393.866,-5.87L-393.866,22.13L-365.866,50.13L-393.866,78.13L-393.866,106.13L-335.866,50.13Z" style="fill:rgb(48,185,219);fill-rule:nonzero;"/>
    </g>
    <g id="svg_52" transform="matrix(0.776171,0,0,0.776171,-319.521,-494.387)">
        <path id="svg_76" d="M1122.86,777.603C1127.29,782.697 1121.7,787.282 1121.7,787.282C1121.7,787.282 1132.93,781.48 1127.77,774.219C1122.95,767.45 1119.26,764.085 1139.26,752.484C1139.26,752.484 1107.86,760.327 1122.86,777.603" style="fill:rgb(248,151,29);fill-rule:nonzero;"/>
        <path id="svg_75" d="M1127.77,733.754C1127.77,733.754 1137.3,743.284 1118.73,757.944C1103.85,769.701 1115.34,776.403 1118.73,784.065C1110.04,776.224 1103.66,769.323 1107.94,762.897C1114.21,753.467 1131.62,748.893 1127.77,733.754" style="fill:rgb(248,151,29);fill-rule:nonzero;"/>
        <path id="svg_74" d="M1102.01,873.871C1101.34,874.831 1100.42,875.31 1099.26,875.31C1097,875.31 1095.87,873.781 1095.87,870.719C1095.87,869.14 1096.18,867.921 1096.81,867.067C1097.43,866.213 1098.31,865.785 1099.42,865.785C1100.51,865.785 1101.31,866.294 1101.83,867.308L1101.12,867.939C1100.72,867.298 1100.19,866.978 1099.56,866.978C1098.88,866.978 1098.36,867.295 1097.98,867.931C1097.61,868.565 1097.42,869.41 1097.42,870.459C1097.42,872.89 1098.12,874.105 1099.53,874.105C1100.19,874.105 1100.8,873.784 1101.35,873.146L1102.01,873.871Z" style="fill:rgb(88,131,159);fill-rule:nonzero;"/>
        <path id="svg_73" d="M1108.87,870.637C1108.87,869.322 1108.69,868.362 1108.31,867.759C1107.97,867.203 1107.42,866.924 1106.68,866.924C1105.27,866.924 1104.56,868.088 1104.56,870.417C1104.56,871.752 1104.75,872.719 1105.12,873.323C1105.47,873.88 1106.01,874.16 1106.75,874.16C1108.17,874.16 1108.87,872.984 1108.87,870.637M1110.44,870.377C1110.44,872.039 1110.08,873.296 1109.36,874.146C1108.7,874.923 1107.78,875.309 1106.6,875.309C1105.42,875.309 1104.54,874.968 1103.95,874.283C1103.32,873.525 1103,872.332 1103,870.705C1103,869.052 1103.36,867.801 1104.08,866.951C1104.74,866.174 1105.65,865.786 1106.83,865.786C1109.24,865.786 1110.44,867.317 1110.44,870.377" style="fill:rgb(88,131,159);fill-rule:nonzero;"/>
        <path id="svg_72" d="M1121.66,875.173L1120.11,875.173C1120.06,872.562 1119.9,870.102 1119.66,867.802L1119.65,867.802L1117.29,875.173L1116.11,875.173L1113.77,867.802L1113.75,867.802C1113.58,870.011 1113.47,872.47 1113.42,875.173L1112.01,875.173C1112.1,871.883 1112.33,868.8 1112.7,865.924L1114.62,865.924L1116.85,872.72L1116.86,872.72L1119.11,865.924L1120.95,865.924C1121.35,869.294 1121.59,872.379 1121.66,875.173" style="fill:rgb(88,131,159);fill-rule:nonzero;"/>
        <path id="svg_71" d="M1127.98,868.883C1127.98,867.632 1127.28,867.005 1125.89,867.005L1125.25,867.005L1125.25,870.801L1125.92,870.801C1127.29,870.801 1127.98,870.163 1127.98,868.883M1129.53,868.733C1129.53,869.691 1129.24,870.441 1128.66,870.979C1128.01,871.602 1127.01,871.912 1125.68,871.912L1125.25,871.912L1125.25,875.172L1123.77,875.172L1123.77,865.923C1124,865.923 1124.37,865.917 1124.88,865.908L1126.14,865.908C1128.4,865.908 1129.53,866.851 1129.53,868.733" style="fill:rgb(88,131,159);fill-rule:nonzero;"/>
        <path id="svg_70" d="M1134.97,872.13C1134.46,870.285 1133.97,868.668 1133.51,867.279C1132.99,869.034 1132.53,870.65 1132.16,872.13L1134.97,872.13ZM1137.27,875.173L1135.68,875.173C1135.58,874.733 1135.42,874.091 1135.21,873.241L1131.91,873.241C1131.76,873.852 1131.61,874.496 1131.49,875.173L1130.05,875.173C1130.78,872.076 1131.65,868.993 1132.68,865.922L1134.58,865.922C1135.61,868.947 1136.51,872.03 1137.27,875.173" style="fill:rgb(88,131,159);fill-rule:nonzero;"/>
        <path id="svg_69" d="M1143.63,867.087L1141.38,867.087L1141.38,875.173L1139.9,875.173L1139.9,867.087L1137.65,867.087L1137.65,865.923L1143.63,865.923L1143.63,867.087Z" style="fill:rgb(88,131,159);fill-rule:nonzero;"/>
        <rect id="svg_68" x="1144.97" y="865.924" width="1.483" height="9.249" style="fill:rgb(88,131,159);fill-rule:nonzero;"/>
        <path id="svg_67" d="M1153.12,872.419C1153.12,871.36 1152.47,870.828 1151.16,870.828L1150.18,870.828L1150.18,874.063C1150.49,874.1 1150.85,874.117 1151.27,874.117C1152.51,874.117 1153.12,873.552 1153.12,872.419M1152.7,868.279C1152.7,867.411 1152.21,866.978 1151.22,866.978L1150.18,866.978L1150.18,869.8L1151.01,869.8C1151.59,869.8 1152.03,869.642 1152.33,869.322C1152.58,869.056 1152.7,868.709 1152.7,868.279M1154.69,872.295C1154.69,873.163 1154.39,873.853 1153.81,874.364C1153.16,874.923 1152.23,875.201 1151,875.201C1150.74,875.201 1150.35,875.195 1149.84,875.187C1149.34,875.177 1148.96,875.172 1148.73,875.172L1148.73,865.923L1151.52,865.923C1152.42,865.923 1153.1,866.125 1153.56,866.527C1153.99,866.901 1154.21,867.411 1154.21,868.061C1154.21,869.046 1153.77,869.733 1152.89,870.117C1153.4,870.199 1153.82,870.427 1154.15,870.801C1154.51,871.214 1154.69,871.711 1154.69,872.295" style="fill:rgb(88,131,159);fill-rule:nonzero;"/>
        <path id="svg_66" d="M1160.92,875.173L1156.52,875.173L1156.52,865.924L1158,865.924L1158,874.035L1160.92,874.035L1160.92,875.173Z" style="fill:rgb(88,131,159);fill-rule:nonzero;"/>
        <path id="svg_65" d="M1166.94,875.173L1162.29,875.173L1162.29,865.924L1166.88,865.924L1166.88,867.075L1163.77,867.075L1163.77,869.882L1166.34,869.882L1166.34,870.993L1163.77,870.993L1163.77,874.008L1166.94,874.008L1166.94,875.173Z" style="fill:rgb(88,131,159);fill-rule:nonzero;"/>
        <path id="svg_64" d="M1153.66,842.21L1154.41,842.21L1154.41,839.32L1155.4,839.32L1155.4,838.728L1152.64,838.728L1152.64,839.32L1153.66,839.32L1153.66,842.21Z" style="fill:rgb(88,131,159);"/>
        <path id="svg_63" d="M1159.39,842.21L1160.11,842.21L1160.11,838.728L1159.04,838.728L1158.17,841.104L1157.22,838.728L1156.19,838.728L1156.19,842.21L1156.86,842.21L1156.86,839.561L1156.9,839.561L1157.89,842.21L1158.4,842.21L1159.39,839.561L1159.39,842.21Z" style="fill:rgb(88,131,159);"/>
        <path id="svg_62" d="M1091.42,856.705C1091.42,861.278 1089.87,864.716 1086.79,867.016L1084.56,865.123C1085.54,863.972 1086.2,862.597 1086.54,860.999C1086.76,859.904 1086.87,858.388 1086.87,856.452L1086.87,831.233L1091.42,831.233L1091.42,856.705Z" style="fill:rgb(88,131,159);fill-rule:nonzero;"/>
        <path id="svg_61" d="M1107.54,854.809L1107.54,849.843L1105.73,849.843C1101.66,849.843 1099.63,851.106 1099.63,853.629C1099.63,855.82 1100.71,856.915 1102.87,856.915C1104.36,856.915 1105.91,856.213 1107.54,854.809M1111.84,859.651L1108.47,859.651L1108.13,857.378C1106.06,859.175 1103.89,860.073 1101.65,860.073C1097.44,860.073 1095.34,858.135 1095.34,854.264C1095.34,852.046 1096.19,850.321 1097.9,849.085C1099.76,847.764 1102.46,847.105 1106.03,847.105L1107.54,847.105L1107.54,845.21C1107.54,842.713 1106.1,841.463 1103.21,841.463C1101.32,841.463 1099.28,841.872 1097.06,842.684L1096.43,840.033C1099.04,838.882 1101.69,838.307 1104.38,838.307C1109.35,838.307 1111.84,840.426 1111.84,844.662L1111.84,859.651Z" style="fill:rgb(88,131,159);fill-rule:nonzero;"/>
        <path id="svg_60" d="M1132.89,838.686C1131.51,846.433 1129.35,853.42 1126.4,859.651L1121.06,859.651L1114.61,838.686L1119.29,838.686L1123.29,851.567L1124.17,855.44C1126.25,849.716 1127.64,844.13 1128.34,838.686L1132.89,838.686Z" style="fill:rgb(88,131,159);fill-rule:nonzero;"/>
        <path id="svg_59" d="M1146.36,854.809L1146.36,849.843L1144.55,849.843C1140.48,849.843 1138.44,851.106 1138.44,853.629C1138.44,855.82 1139.52,856.915 1141.68,856.915C1143.17,856.915 1144.73,856.213 1146.36,854.809M1150.65,859.651L1147.28,859.651L1146.95,857.378C1144.87,859.175 1142.71,860.073 1140.46,860.073C1136.25,860.073 1134.15,858.135 1134.15,854.264C1134.15,852.046 1135,850.321 1136.72,849.085C1138.57,847.764 1141.28,847.105 1144.84,847.105L1146.36,847.105L1146.36,845.21C1146.36,842.713 1144.91,841.463 1142.02,841.463C1140.14,841.463 1138.09,841.872 1135.88,842.684L1135.24,840.033C1137.85,838.882 1140.51,838.307 1143.2,838.307C1148.17,838.307 1150.65,840.426 1150.65,844.662L1150.65,859.651Z" style="fill:rgb(88,131,159);fill-rule:nonzero;"/>
        <path id="svg_58" d="M1106.56,804.679C1106.56,804.679 1103.06,806.714 1109.05,807.404C1116.32,808.233 1120.04,808.115 1128.04,806.6C1128.04,806.6 1130.15,807.92 1133.09,809.06C1115.14,816.757 1092.46,808.618 1106.56,804.679" style="fill:rgb(88,131,159);fill-rule:nonzero;"/>
        <path id="svg_57" d="M1104.37,794.637C1104.37,794.637 1100.43,797.546 1106.44,798.165C1114.2,798.967 1120.33,799.033 1130.94,796.991C1130.94,796.991 1132.4,798.478 1134.71,799.289C1113.01,805.642 1088.83,799.791 1104.37,794.637" style="fill:rgb(88,131,159);fill-rule:nonzero;"/>
        <path id="svg_56" d="M1146.6,812.104C1146.6,812.104 1149.2,814.24 1143.75,815.896C1133.38,819.033 1100.62,819.982 1091.51,816.018C1088.24,814.597 1094.38,812.621 1096.31,812.206C1098.32,811.772 1099.47,811.849 1099.47,811.849C1095.83,809.285 1075.95,816.883 1089.37,819.06C1125.98,824.995 1156.1,816.386 1146.6,812.104" style="fill:rgb(88,131,159);fill-rule:nonzero;"/>
        <path id="svg_55" d="M1108.25,784.232C1108.25,784.232 1091.58,788.194 1102.34,789.633C1106.89,790.238 1115.95,790.099 1124.39,789.394C1131.29,788.813 1138.21,787.572 1138.21,787.572C1138.21,787.572 1135.78,788.619 1134.02,789.816C1117.09,794.27 1084.4,792.195 1093.81,787.645C1101.77,783.795 1108.25,784.232 1108.25,784.232" style="fill:rgb(88,131,159);fill-rule:nonzero;"/>
        <path id="svg_54" d="M1138.15,800.945C1155.35,792.003 1147.4,783.415 1141.84,784.57C1140.48,784.855 1139.87,785.1 1139.87,785.1C1139.87,785.1 1140.38,784.306 1141.34,783.966C1152.33,780.104 1160.78,795.354 1137.8,801.396C1137.8,801.396 1138.07,801.159 1138.15,800.945" style="fill:rgb(88,131,159);fill-rule:nonzero;"/>
        <path id="svg_53" d="M1109.93,825.174C1126.45,826.231 1151.81,824.586 1152.42,816.772C1152.42,816.772 1151.26,819.735 1138.76,822.089C1124.67,824.74 1107.28,824.428 1096.97,822.729C1096.97,822.729 1099.08,824.478 1109.93,825.174" style="fill:rgb(88,131,159);fill-rule:nonzero;"/>
    </g>
    <g id="svg_6" transform="matrix(1,0,0,1,516.264,325.334)">
        <text x="0px" y="0px" style="font-family:'SegoeUIBlack', 'Segoe UI', sans-serif;font-weight:900;font-size:34px;fill:rgb(33,37,41);">VB</text>
    </g>
    <g id="svg_7" transform="matrix(1,0,0,1,534.264,345.334)">
        <text x="0px" y="0px" style="font-family:'SegoeUI', 'Segoe UI', sans-serif;font-size:32px;fill:rgb(33,37,41);">.net</text>
    </g>
    <g id="svg_847" transform="matrix(1,0,0,1,-5.48627,98.2544)">
        <path d="M26.11,412.293L29.562,412.293L29.562,415.715L32.743,415.715L32.743,412.293L36.194,412.293L36.194,422.648L32.743,422.648L32.743,419.196L29.592,419.196L29.592,422.648L26.11,422.648M40.756,415.745L37.71,415.745L37.71,412.293L47.269,412.293L47.269,415.745L44.208,415.745L44.208,422.648L40.756,422.648M48.785,412.293L52.402,412.293L54.622,415.94L56.843,412.293L60.46,412.293L60.46,422.648L57.009,422.648L57.009,417.516L54.592,421.237L52.176,417.516L52.176,422.648L48.785,422.648M62.171,412.293L65.622,412.293L65.622,419.226L70.514,419.226L70.514,422.648L62.171,422.648" style="fill-rule:nonzero;"/>
    </g>
    <g id="svg_848" transform="matrix(1,0,0,1,-5.48627,98.2544)">
        <path d="M25.99,482.974L21.038,427.39L75.482,427.39L70.529,482.944L48.215,489.127" style="fill:rgb(228,77,38);fill-rule:nonzero;"/>
    </g>
    <g id="svg_849" transform="matrix(1,0,0,1,-5.48627,98.2544)">
        <path d="M48.26,484.4L48.26,431.952L70.514,431.952L66.268,479.372" style="fill:rgb(241,101,41);fill-rule:nonzero;"/>
    </g>
    <g id="svg_850" transform="matrix(1,0,0,1,-5.48627,98.2544)">
        <path d="M31.152,438.75L48.26,438.75L48.26,445.563L38.626,445.563L39.256,452.541L48.26,452.541L48.26,459.339L33.013,459.339M33.313,462.76L40.156,462.76L40.636,468.208L48.26,470.249L48.26,477.362L34.274,473.46" style="fill:rgb(235,235,235);fill-rule:nonzero;"/>
    </g>
    <g id="svg_851" transform="matrix(1,0,0,1,-5.48627,98.2544)">
        <path d="M65.307,438.75L48.23,438.75L48.23,445.563L64.677,445.563M64.062,452.541L48.23,452.541L48.23,459.354L56.633,459.354L55.838,468.208L48.23,470.249L48.23,477.332L62.186,473.46" style="fill:white;fill-rule:nonzero;"/>
    </g>
    <g id="svg_10" transform="matrix(1,0,0,1,117.514,528.254)">
        <text x="0px" y="0px" style="font-family:'SegoeUI', 'Segoe UI', sans-serif;font-size:16px;fill:rgb(65,64,66);">for</text>
    </g>
    <g id="svg_101" serif:id="svg_10" transform="matrix(1,0,0,1,268.157,487.12)">
        <text x="0px" y="0px" style="font-family:'SegoeUI', 'Segoe UI', sans-serif;font-size:16px;fill:rgb(65,64,66);">or</text>
    </g>
    <g id="svg_102" serif:id="svg_10" transform="matrix(1,0,0,1,114.514,578.254)">
        <text x="0px" y="0px" style="font-family:'SegoeUI', 'Segoe UI', sans-serif;font-size:60px;fill:rgb(65,64,66);">iOS</text>
    </g>
    <g id="grpc-horizontal-color.svg" transform="matrix(0.344183,0,0,0.344183,407.149,557.107)">
        <g transform="matrix(1,0,0,1,-200.59,-85.965)">
            <g transform="matrix(1,0,0,1,5.22,4.97)">
                <path d="M45.253,138.483C48.118,142.295 51.842,145.378 56.121,147.481C60.749,149.773 65.857,150.933 71.021,150.863C75.197,150.972 79.354,150.263 83.257,148.776C86.379,147.55 89.166,145.601 91.39,143.09C93.477,140.644 95.001,137.768 95.853,134.668C96.782,131.317 97.242,127.853 97.22,124.376L97.22,112.284L96.933,112.284C94.227,116.574 90.322,119.977 85.703,122.073C81.299,123.99 76.543,124.971 71.74,124.952C67.033,124.987 62.364,124.107 57.993,122.361C53.854,120.718 50.067,118.299 46.836,115.235C43.63,112.157 41.083,108.458 39.35,104.365C37.506,100.044 36.575,95.388 36.615,90.69C36.575,86.006 37.456,81.359 39.207,77.014C40.862,72.903 43.28,69.142 46.332,65.93C49.384,62.744 53.059,60.22 57.129,58.516C61.484,56.706 66.161,55.799 70.877,55.853C73.024,55.865 75.167,56.058 77.282,56.428C79.608,56.834 81.879,57.511 84.048,58.444C89.198,60.676 93.65,64.258 96.933,68.81L97.22,68.81L97.22,57.58L106.722,57.58L106.722,124.376C106.69,128.301 106.231,132.21 105.354,136.036C104.437,140.172 102.618,144.055 100.028,147.408C97.081,151.107 93.309,154.065 89.015,156.047C84.312,158.349 78.169,159.5 70.588,159.5C64.43,159.605 58.312,158.48 52.594,156.19C47.124,153.846 42.216,150.362 38.2,145.97L45.253,138.483ZM46.98,90.403C46.956,93.834 47.617,97.235 48.924,100.407C50.17,103.451 51.976,106.234 54.249,108.612C56.509,110.969 59.196,112.874 62.167,114.227C65.262,115.634 68.628,116.346 72.028,116.314C78.759,116.338 85.251,113.788 90.166,109.189C92.581,106.911 94.472,104.135 95.709,101.054C97.042,97.667 97.655,94.04 97.509,90.403C97.533,86.991 96.948,83.603 95.781,80.397C94.672,77.35 92.958,74.559 90.742,72.192C88.464,69.792 85.721,67.882 82.681,66.578C79.314,65.147 75.686,64.436 72.028,64.49C68.628,64.459 65.262,65.172 62.167,66.578C59.197,67.932 56.51,69.837 54.249,72.192C51.977,74.57 50.17,77.353 48.923,80.397C47.617,83.57 46.956,86.972 46.98,90.403ZM145.444,124.952L135.08,124.952L135.08,23.03L166.462,23.03C176.827,23.03 185.008,25.285 191.006,29.796C197.003,34.308 200.003,41.122 200.004,50.238C200.186,56.853 197.784,63.285 193.31,68.16C188.847,73.007 182.393,75.814 173.948,76.581L203.315,124.951L190.646,124.951L162.72,77.59L145.445,77.59L145.444,124.952ZM145.444,68.089L163.871,68.089C167.83,68.172 171.781,67.687 175.603,66.649C178.398,65.902 181.016,64.605 183.305,62.835C185.151,61.349 186.588,59.417 187.479,57.221C188.355,54.998 188.795,52.627 188.775,50.238C188.786,47.897 188.346,45.576 187.479,43.401C186.578,41.19 185.144,39.237 183.305,37.714C181.038,35.909 178.412,34.608 175.603,33.899C171.773,32.913 167.826,32.453 163.871,32.532L145.444,32.532L145.444,68.089ZM221.163,23.03L250.819,23.03C261.183,23.03 269.364,25.286 275.362,29.797C281.359,34.309 284.359,41.123 284.36,50.239C284.36,59.358 281.361,66.195 275.362,70.752C269.364,75.311 261.183,77.591 250.819,77.59L231.529,77.59L231.529,124.952L221.163,124.952L221.163,23.03ZM231.53,68.09L248.229,68.09C252.188,68.173 256.139,67.688 259.961,66.65C262.756,65.902 265.374,64.606 267.663,62.836C269.509,61.35 270.946,59.418 271.837,57.222C272.713,54.999 273.153,52.628 273.133,50.239C273.144,47.898 272.704,45.577 271.837,43.402C270.935,41.192 269.501,39.238 267.663,37.715C265.396,35.91 262.77,34.609 259.961,33.9C256.131,32.914 252.184,32.454 248.229,32.533L231.529,32.533L231.53,68.09ZM388.437,108.829C386.613,111.531 384.462,113.997 382.033,116.171C379.403,118.534 376.475,120.542 373.323,122.144C369.958,123.862 366.409,125.191 362.743,126.104C358.811,127.08 354.772,127.563 350.721,127.543C343.494,127.611 336.326,126.241 329.633,123.513C316.874,118.357 306.756,108.213 301.633,95.441C298.89,88.626 297.521,81.336 297.603,73.991C297.521,66.646 298.89,59.356 301.633,52.541C306.756,39.77 316.874,29.626 329.633,24.471C336.325,21.743 343.494,20.372 350.721,20.44C357.235,20.475 363.683,21.745 369.724,24.182C376.166,26.76 381.789,31.04 385.99,36.563L376.922,43.329C375.704,41.514 374.251,39.868 372.602,38.434C370.697,36.747 368.595,35.298 366.342,34.116C363.934,32.848 361.401,31.835 358.783,31.093C356.163,30.335 353.449,29.947 350.721,29.941C344.674,29.842 338.679,31.07 333.159,33.54C328.151,35.812 323.666,39.096 319.988,43.184C316.347,47.284 313.536,52.051 311.709,57.221C307.872,68.069 307.872,79.913 311.709,90.761C313.535,95.931 316.347,100.698 319.988,104.797C323.665,108.887 328.15,112.171 333.159,114.442C338.679,116.913 344.674,118.142 350.721,118.042C353.401,118.043 356.075,117.802 358.711,117.322C361.393,116.829 364.004,116.007 366.485,114.875C369.1,113.675 371.525,112.099 373.683,110.195C376.107,108.03 378.215,105.535 379.944,102.783L388.437,108.829Z" style="fill:rgb(36,75,90);fill-rule:nonzero;"/>
            </g>
            <g transform="matrix(1,0,0,1,5.22,4.97)">
                <clipPath id="_clip7">
                    <path d="M29.376,56.4L2.534,29.756L29.178,2.913L56.02,29.557L29.376,56.4Z"/>
                </clipPath>
                <g clip-path="url(#_clip7)">
                    <path d="M3.006,2.913L2.533,7.101L2.533,2.913L3.006,2.913Z" style="fill:rgb(117,202,202);fill-rule:nonzero;"/>
                    <path d="M3.632,2.913L2.533,12.635L2.533,7.101L3.006,2.913L3.632,2.913Z" style="fill:rgb(116,203,202);fill-rule:nonzero;"/>
                    <path d="M4.257,2.913L2.533,18.168L2.533,12.635L3.632,2.913L4.257,2.913Z" style="fill:rgb(116,203,202);fill-rule:nonzero;"/>
                    <path d="M4.882,2.913L2.533,23.702L2.533,18.168L4.257,2.913L4.882,2.913Z" style="fill:rgb(115,203,202);fill-rule:nonzero;"/>
                    <path d="M5.507,2.913L2.533,29.236L2.533,23.702L4.882,2.913L5.507,2.913Z" style="fill:rgb(115,203,202);fill-rule:nonzero;"/>
                    <path d="M6.133,2.913L2.533,34.77L2.533,29.236L5.507,2.913L6.133,2.913ZM6.758,2.913L2.533,40.303L2.533,34.77L6.133,2.913L6.758,2.913Z" style="fill:rgb(114,201,201);fill-rule:nonzero;"/>
                    <path d="M7.383,2.913L2.533,45.837L2.533,40.303L6.758,2.913L7.383,2.913Z" style="fill:rgb(112,202,202);fill-rule:nonzero;"/>
                    <path d="M8.008,2.913L2.533,51.371L2.533,45.837L7.383,2.913L8.008,2.913Z" style="fill:rgb(112,202,202);fill-rule:nonzero;"/>
                    <path d="M8.634,2.913L2.594,56.367L2.533,56.36L2.533,51.371L8.008,2.913L8.634,2.913Z" style="fill:rgb(111,202,200);fill-rule:nonzero;"/>
                    <path d="M9.259,2.913L3.215,56.4L2.884,56.4L2.594,56.367L8.634,2.913L9.259,2.913Z" style="fill:rgb(110,200,200);fill-rule:nonzero;"/>
                    <path d="M9.884,2.913L3.841,56.4L3.215,56.4L9.259,2.913L9.884,2.913Z" style="fill:rgb(110,200,200);fill-rule:nonzero;"/>
                    <path d="M10.51,2.913L4.466,56.4L3.841,56.4L9.884,2.913L10.51,2.913Z" style="fill:rgb(108,201,201);fill-rule:nonzero;"/>
                    <path d="M11.135,2.913L5.091,56.4L4.466,56.4L10.51,2.913L11.135,2.913Z" style="fill:rgb(109,201,200);fill-rule:nonzero;"/>
                    <path d="M11.76,2.913L5.717,56.4L5.091,56.4L11.135,2.913L11.76,2.913Z" style="fill:rgb(105,199,200);fill-rule:nonzero;"/>
                    <path d="M12.385,2.913L6.342,56.4L5.717,56.4L11.76,2.913L12.385,2.913Z" style="fill:rgb(105,199,200);fill-rule:nonzero;"/>
                    <path d="M13.011,2.913L6.967,56.4L6.342,56.4L12.385,2.913L13.011,2.913Z" style="fill:rgb(105,200,199);fill-rule:nonzero;"/>
                    <path d="M13.636,2.913L7.592,56.4L6.967,56.4L13.011,2.913L13.636,2.913Z" style="fill:rgb(104,200,199);fill-rule:nonzero;"/>
                    <path d="M14.261,2.913L8.218,56.4L7.592,56.4L13.636,2.913L14.261,2.913Z" style="fill:rgb(103,199,199);fill-rule:nonzero;"/>
                    <path d="M14.886,2.913L8.843,56.4L8.218,56.4L14.261,2.913L14.886,2.913Z" style="fill:rgb(101,199,199);fill-rule:nonzero;"/>
                    <path d="M15.512,2.913L9.468,56.4L8.843,56.4L14.886,2.913L15.512,2.913Z" style="fill:rgb(100,199,199);fill-rule:nonzero;"/>
                    <path d="M16.137,2.913L10.093,56.4L9.468,56.4L15.512,2.913L16.137,2.913Z" style="fill:rgb(99,198,198);fill-rule:nonzero;"/>
                    <path d="M16.762,2.913L10.719,56.4L10.093,56.4L16.137,2.913L16.762,2.913Z" style="fill:rgb(96,198,198);fill-rule:nonzero;"/>
                    <path d="M17.387,2.913L11.344,56.4L10.719,56.4L16.762,2.913L17.387,2.913Z" style="fill:rgb(96,198,197);fill-rule:nonzero;"/>
                    <path d="M18.013,2.913L11.969,56.4L11.344,56.4L17.387,2.913L18.013,2.913Z" style="fill:rgb(95,198,197);fill-rule:nonzero;"/>
                    <path d="M18.638,2.913L12.594,56.4L11.969,56.4L18.013,2.913L18.638,2.913Z" style="fill:rgb(92,197,196);fill-rule:nonzero;"/>
                    <path d="M19.263,2.913L13.22,56.4L12.594,56.4L18.638,2.913L19.263,2.913Z" style="fill:rgb(90,197,196);fill-rule:nonzero;"/>
                    <path d="M19.888,2.913L13.845,56.4L13.22,56.4L19.263,2.913L19.888,2.913Z" style="fill:rgb(90,197,196);fill-rule:nonzero;"/>
                    <path d="M20.514,2.913L14.47,56.4L13.845,56.4L19.888,2.913L20.514,2.913Z" style="fill:rgb(87,196,196);fill-rule:nonzero;"/>
                    <path d="M21.139,2.913L15.095,56.4L14.47,56.4L20.514,2.913L21.139,2.913Z" style="fill:rgb(88,196,195);fill-rule:nonzero;"/>
                    <path d="M21.764,2.913L15.721,56.4L15.095,56.4L21.139,2.913L21.764,2.913Z" style="fill:rgb(85,196,195);fill-rule:nonzero;"/>
                    <path d="M22.389,2.913L16.346,56.4L15.721,56.4L21.764,2.913L22.389,2.913Z" style="fill:rgb(83,195,194);fill-rule:nonzero;"/>
                    <path d="M23.015,2.913L16.971,56.4L16.346,56.4L22.389,2.913L23.015,2.913Z" style="fill:rgb(82,195,194);fill-rule:nonzero;"/>
                    <path d="M23.64,2.913L17.596,56.4L16.971,56.4L23.015,2.913L23.64,2.913Z" style="fill:rgb(80,195,194);fill-rule:nonzero;"/>
                    <path d="M24.265,2.913L18.222,56.4L17.596,56.4L23.64,2.913L24.265,2.913Z" style="fill:rgb(80,193,192);fill-rule:nonzero;"/>
                    <path d="M24.891,2.913L18.847,56.4L18.222,56.4L24.265,2.913L24.891,2.913Z" style="fill:rgb(75,194,192);fill-rule:nonzero;"/>
                    <path d="M25.516,2.913L19.472,56.4L18.847,56.4L24.891,2.913L25.516,2.913Z" style="fill:rgb(76,193,192);fill-rule:nonzero;"/>
                    <path d="M26.141,2.913L20.097,56.4L19.472,56.4L25.516,2.913L26.141,2.913Z" style="fill:rgb(71,193,190);fill-rule:nonzero;"/>
                    <path d="M26.766,2.913L20.723,56.4L20.097,56.4L26.141,2.913L26.766,2.913Z" style="fill:rgb(70,192,190);fill-rule:nonzero;"/>
                    <path d="M27.392,2.913L21.348,56.4L20.723,56.4L26.766,2.913L27.392,2.913Z" style="fill:rgb(67,192,190);fill-rule:nonzero;"/>
                    <path d="M28.017,2.913L21.973,56.4L21.348,56.4L27.392,2.913L28.017,2.913Z" style="fill:rgb(64,191,189);fill-rule:nonzero;"/>
                    <path d="M28.642,2.913L22.599,56.4L21.973,56.4L28.017,2.913L28.642,2.913Z" style="fill:rgb(59,191,189);fill-rule:nonzero;"/>
                    <path d="M29.267,2.913L23.224,56.4L22.599,56.4L28.642,2.913L29.267,2.913Z" style="fill:rgb(57,191,188);fill-rule:nonzero;"/>
                    <path d="M29.893,2.913L23.849,56.4L23.224,56.4L29.267,2.913L29.893,2.913Z" style="fill:rgb(52,190,189);fill-rule:nonzero;"/>
                    <path d="M30.518,2.913L24.474,56.4L23.849,56.4L29.893,2.913L30.518,2.913Z" style="fill:rgb(50,190,187);fill-rule:nonzero;"/>
                    <path d="M31.143,2.913L25.1,56.4L24.474,56.4L30.518,2.913L31.143,2.913Z" style="fill:rgb(45,189,187);fill-rule:nonzero;"/>
                    <path d="M31.768,2.913L25.725,56.4L25.1,56.4L31.143,2.913L31.768,2.913Z" style="fill:rgb(36,188,187);fill-rule:nonzero;"/>
                    <path d="M32.394,2.913L26.35,56.4L25.725,56.4L31.768,2.913L32.394,2.913Z" style="fill:rgb(33,188,185);fill-rule:nonzero;"/>
                    <path d="M33.019,2.913L26.975,56.4L26.35,56.4L32.394,2.913L33.019,2.913Z" style="fill:rgb(24,187,185);fill-rule:nonzero;"/>
                    <path d="M33.644,2.913L27.601,56.4L26.975,56.4L33.019,2.913L33.644,2.913Z" style="fill:rgb(15,186,185);fill-rule:nonzero;"/>
                    <path d="M34.269,2.913L28.226,56.4L27.601,56.4L33.644,2.913L34.269,2.913Z" style="fill:rgb(3,187,184);fill-rule:nonzero;"/>
                    <path d="M34.895,2.913L28.851,56.4L28.226,56.4L34.269,2.913L34.895,2.913Z" style="fill:rgb(6,184,182);fill-rule:nonzero;"/>
                    <path d="M35.52,2.913L29.476,56.4L28.851,56.4L34.895,2.913L35.52,2.913Z" style="fill:rgb(6,184,182);fill-rule:nonzero;"/>
                    <path d="M36.145,2.913L30.102,56.4L29.476,56.4L35.52,2.913L36.145,2.913Z" style="fill:rgb(3,183,181);fill-rule:nonzero;"/>
                    <path d="M36.77,2.913L30.727,56.4L30.102,56.4L36.145,2.913L36.77,2.913Z" style="fill:rgb(4,183,180);fill-rule:nonzero;"/>
                    <path d="M37.396,2.913L31.352,56.4L30.727,56.4L36.77,2.913L37.396,2.913Z" style="fill:rgb(0,182,181);fill-rule:nonzero;"/>
                    <path d="M38.021,2.913L31.977,56.4L31.352,56.4L37.396,2.913L38.021,2.913Z" style="fill:rgb(3,182,180);fill-rule:nonzero;"/>
                    <path d="M38.646,2.913L32.603,56.4L31.977,56.4L38.021,2.913L38.646,2.913Z" style="fill:rgb(5,182,178);fill-rule:nonzero;"/>
                    <path d="M39.271,2.913L33.228,56.4L32.603,56.4L38.646,2.913L39.271,2.913Z" style="fill:rgb(1,181,177);fill-rule:nonzero;"/>
                    <path d="M39.897,2.913L33.853,56.4L33.228,56.4L39.271,2.913L39.897,2.913Z" style="fill:rgb(1,181,177);fill-rule:nonzero;"/>
                    <path d="M40.522,2.913L34.478,56.4L33.853,56.4L39.897,2.913L40.522,2.913Z" style="fill:rgb(0,180,177);fill-rule:nonzero;"/>
                    <path d="M41.147,2.913L35.104,56.4L34.478,56.4L40.522,2.913L41.147,2.913Z" style="fill:rgb(0,179,176);fill-rule:nonzero;"/>
                    <path d="M41.773,2.913L35.729,56.4L35.104,56.4L41.147,2.913L41.773,2.913Z" style="fill:rgb(0,179,176);fill-rule:nonzero;"/>
                    <path d="M42.398,2.913L36.354,56.4L35.729,56.4L41.773,2.913L42.398,2.913Z" style="fill:rgb(0,178,175);fill-rule:nonzero;"/>
                    <path d="M43.023,2.913L36.979,56.4L36.354,56.4L42.398,2.913L43.023,2.913Z" style="fill:rgb(0,178,174);fill-rule:nonzero;"/>
                    <path d="M43.648,2.913L37.605,56.4L36.979,56.4L43.023,2.913L43.648,2.913Z" style="fill:rgb(0,177,174);fill-rule:nonzero;"/>
                    <path d="M44.274,2.913L38.23,56.4L37.605,56.4L43.648,2.913L44.274,2.913Z" style="fill:rgb(0,177,173);fill-rule:nonzero;"/>
                    <path d="M44.899,2.913L38.855,56.4L38.23,56.4L44.274,2.913L44.899,2.913Z" style="fill:rgb(0,176,172);fill-rule:nonzero;"/>
                    <path d="M45.524,2.913L39.481,56.4L38.855,56.4L44.899,2.913L45.524,2.913Z" style="fill:rgb(0,175,172);fill-rule:nonzero;"/>
                    <path d="M55.67,2.913L56.02,2.952L56.02,56.4L39.481,56.4L45.524,2.913L55.67,2.913Z" style="fill:rgb(0,175,172);fill-rule:nonzero;"/>
                </g>
            </g>
            <g transform="matrix(1,0,0,1,5.22,4.97)">
                <clipPath id="_clip8">
                    <path d="M102.419,45.027L86.674,29.399L102.302,13.654L118.047,29.282L102.419,45.027Z"/>
                </clipPath>
                <g clip-path="url(#_clip8)">
                    <path d="M118.046,22.817L117.619,13.653L118.046,13.653L118.046,22.817Z" style="fill:rgb(117,202,202);fill-rule:nonzero;"/>
                    <path d="M118.046,32.446L117.171,13.653L117.619,13.653L118.046,22.817L118.046,32.446Z" style="fill:rgb(116,203,202);fill-rule:nonzero;"/>
                    <path d="M118.046,42.075L116.722,13.653L117.171,13.653L118.046,32.446L118.046,42.075Z" style="fill:rgb(116,203,202);fill-rule:nonzero;"/>
                    <path d="M117.735,45.027L116.274,13.653L116.722,13.653L118.046,42.075L118.046,45.027L117.735,45.027Z" style="fill:rgb(115,203,202);fill-rule:nonzero;"/>
                    <path d="M117.286,45.027L115.825,13.653L116.274,13.653L117.735,45.027L117.286,45.027ZM116.838,45.027L115.377,13.653L115.825,13.653L117.286,45.027L116.838,45.027Z" style="fill:rgb(114,201,201);fill-rule:nonzero;"/>
                    <path d="M116.389,45.027L114.928,13.653L115.377,13.653L116.838,45.027L116.389,45.027Z" style="fill:rgb(112,202,202);fill-rule:nonzero;"/>
                    <path d="M115.941,45.027L114.48,13.653L114.928,13.653L116.389,45.027L115.941,45.027Z" style="fill:rgb(111,202,200);fill-rule:nonzero;"/>
                    <path d="M115.493,45.027L114.031,13.653L114.48,13.653L115.941,45.027L115.493,45.027Z" style="fill:rgb(110,200,200);fill-rule:nonzero;"/>
                    <path d="M115.044,45.027L113.583,13.653L114.031,13.653L115.493,45.027L115.044,45.027Z" style="fill:rgb(110,200,200);fill-rule:nonzero;"/>
                    <path d="M114.596,45.027L113.134,13.653L113.583,13.653L115.044,45.027L114.596,45.027Z" style="fill:rgb(108,201,201);fill-rule:nonzero;"/>
                    <path d="M114.147,45.027L112.686,13.653L113.134,13.653L114.596,45.027L114.147,45.027Z" style="fill:rgb(109,201,200);fill-rule:nonzero;"/>
                    <path d="M113.699,45.027L112.237,13.653L112.686,13.653L114.147,45.027L113.699,45.027Z" style="fill:rgb(105,199,200);fill-rule:nonzero;"/>
                    <path d="M113.25,45.027L111.789,13.653L112.237,13.653L113.699,45.027L113.25,45.027Z" style="fill:rgb(105,199,200);fill-rule:nonzero;"/>
                    <path d="M112.802,45.027L111.34,13.653L111.789,13.653L113.25,45.027L112.802,45.027Z" style="fill:rgb(105,200,199);fill-rule:nonzero;"/>
                    <path d="M112.353,45.027L110.892,13.653L111.34,13.653L112.802,45.027L112.353,45.027Z" style="fill:rgb(104,200,199);fill-rule:nonzero;"/>
                    <path d="M111.905,45.027L110.443,13.653L110.892,13.653L112.353,45.027L111.905,45.027Z" style="fill:rgb(103,199,199);fill-rule:nonzero;"/>
                    <path d="M111.456,45.027L109.995,13.653L110.443,13.653L111.905,45.027L111.456,45.027Z" style="fill:rgb(101,199,199);fill-rule:nonzero;"/>
                    <path d="M111.008,45.027L109.547,13.653L109.995,13.653L111.456,45.027L111.008,45.027Z" style="fill:rgb(100,199,199);fill-rule:nonzero;"/>
                    <path d="M110.559,45.027L109.098,13.653L109.547,13.653L111.008,45.027L110.559,45.027Z" style="fill:rgb(99,198,198);fill-rule:nonzero;"/>
                    <path d="M110.111,45.027L108.65,13.653L109.098,13.653L110.559,45.027L110.111,45.027Z" style="fill:rgb(96,198,198);fill-rule:nonzero;"/>
                    <path d="M109.662,45.027L108.201,13.653L108.65,13.653L110.111,45.027L109.662,45.027Z" style="fill:rgb(96,198,197);fill-rule:nonzero;"/>
                    <path d="M109.214,45.027L107.753,13.653L108.201,13.653L109.662,45.027L109.214,45.027Z" style="fill:rgb(95,198,197);fill-rule:nonzero;"/>
                    <path d="M108.765,45.027L107.304,13.653L107.753,13.653L109.214,45.027L108.765,45.027Z" style="fill:rgb(95,198,197);fill-rule:nonzero;"/>
                    <path d="M108.317,45.027L106.856,13.653L107.304,13.653L108.765,45.027L108.317,45.027Z" style="fill:rgb(92,197,196);fill-rule:nonzero;"/>
                    <path d="M107.868,45.027L106.407,13.653L106.856,13.653L108.317,45.027L107.868,45.027Z" style="fill:rgb(90,197,196);fill-rule:nonzero;"/>
                    <path d="M107.42,45.027L105.959,13.653L106.407,13.653L107.868,45.027L107.42,45.027Z" style="fill:rgb(90,197,196);fill-rule:nonzero;"/>
                    <path d="M106.972,45.027L105.51,13.653L105.959,13.653L107.42,45.027L106.972,45.027Z" style="fill:rgb(87,196,196);fill-rule:nonzero;"/>
                    <path d="M106.523,45.027L105.062,13.653L105.51,13.653L106.972,45.027L106.523,45.027Z" style="fill:rgb(88,196,195);fill-rule:nonzero;"/>
                    <path d="M106.075,45.027L104.613,13.653L105.062,13.653L106.523,45.027L106.075,45.027Z" style="fill:rgb(85,196,195);fill-rule:nonzero;"/>
                    <path d="M105.626,45.027L104.165,13.653L104.613,13.653L106.075,45.027L105.626,45.027ZM105.178,45.027L103.716,13.653L104.165,13.653L105.626,45.027L105.178,45.027Z" style="fill:rgb(83,195,194);fill-rule:nonzero;"/>
                    <path d="M104.729,45.027L103.268,13.653L103.716,13.653L105.178,45.027L104.729,45.027Z" style="fill:rgb(82,195,194);fill-rule:nonzero;"/>
                    <path d="M104.281,45.027L102.819,13.653L103.268,13.653L104.729,45.027L104.281,45.027Z" style="fill:rgb(80,195,194);fill-rule:nonzero;"/>
                    <path d="M103.832,45.027L102.371,13.653L102.819,13.653L104.281,45.027L103.832,45.027Z" style="fill:rgb(80,193,192);fill-rule:nonzero;"/>
                    <path d="M103.384,45.027L101.922,13.653L102.371,13.653L103.832,45.027L103.384,45.027Z" style="fill:rgb(77,194,193);fill-rule:nonzero;"/>
                    <path d="M102.935,45.027L101.474,13.653L101.922,13.653L103.384,45.027L102.935,45.027Z" style="fill:rgb(76,194,192);fill-rule:nonzero;"/>
                    <path d="M102.487,45.027L101.026,13.653L101.474,13.653L102.935,45.027L102.487,45.027Z" style="fill:rgb(75,192,191);fill-rule:nonzero;"/>
                    <path d="M102.038,45.027L100.577,13.653L101.026,13.653L102.487,45.027L102.038,45.027Z" style="fill:rgb(71,193,190);fill-rule:nonzero;"/>
                    <path d="M101.59,45.027L100.129,13.653L100.577,13.653L102.038,45.027L101.59,45.027Z" style="fill:rgb(70,192,190);fill-rule:nonzero;"/>
                    <path d="M101.141,45.027L99.68,13.653L100.129,13.653L101.59,45.027L101.141,45.027Z" style="fill:rgb(67,192,190);fill-rule:nonzero;"/>
                    <path d="M100.693,45.027L99.232,13.653L99.68,13.653L101.141,45.027L100.693,45.027Z" style="fill:rgb(65,192,190);fill-rule:nonzero;"/>
                    <path d="M100.244,45.027L98.783,13.653L99.232,13.653L100.693,45.027L100.244,45.027Z" style="fill:rgb(64,191,189);fill-rule:nonzero;"/>
                    <path d="M99.796,45.027L98.335,13.653L98.783,13.653L100.244,45.027L99.796,45.027Z" style="fill:rgb(59,191,189);fill-rule:nonzero;"/>
                    <path d="M99.347,45.027L97.886,13.653L98.335,13.653L99.796,45.027L99.347,45.027Z" style="fill:rgb(60,191,188);fill-rule:nonzero;"/>
                    <path d="M98.899,45.027L97.438,13.653L97.886,13.653L99.347,45.027L98.899,45.027Z" style="fill:rgb(57,191,188);fill-rule:nonzero;"/>
                    <path d="M98.45,45.027L96.989,13.653L97.438,13.653L98.899,45.027L98.45,45.027Z" style="fill:rgb(52,190,189);fill-rule:nonzero;"/>
                    <path d="M98.002,45.027L96.541,13.653L96.989,13.653L98.45,45.027L98.002,45.027Z" style="fill:rgb(50,190,187);fill-rule:nonzero;"/>
                    <path d="M97.554,45.027L96.092,13.653L96.541,13.653L98.002,45.027L97.554,45.027Z" style="fill:rgb(47,190,188);fill-rule:nonzero;"/>
                    <path d="M97.105,45.027L95.644,13.653L96.092,13.653L97.554,45.027L97.105,45.027Z" style="fill:rgb(45,189,187);fill-rule:nonzero;"/>
                    <path d="M96.657,45.027L95.195,13.653L95.644,13.653L97.105,45.027L96.657,45.027Z" style="fill:rgb(43,189,186);fill-rule:nonzero;"/>
                    <path d="M96.208,45.027L94.747,13.653L95.195,13.653L96.657,45.027L96.208,45.027Z" style="fill:rgb(36,188,187);fill-rule:nonzero;"/>
                    <path d="M95.76,45.027L94.298,13.653L94.747,13.653L96.208,45.027L95.76,45.027Z" style="fill:rgb(33,188,185);fill-rule:nonzero;"/>
                    <path d="M95.311,45.027L93.85,13.653L94.298,13.653L95.76,45.027L95.311,45.027Z" style="fill:rgb(24,187,185);fill-rule:nonzero;"/>
                    <path d="M94.863,45.027L93.401,13.653L93.85,13.653L95.311,45.027L94.863,45.027Z" style="fill:rgb(22,186,185);fill-rule:nonzero;"/>
                    <path d="M94.414,45.027L92.953,13.653L93.401,13.653L94.863,45.027L94.414,45.027Z" style="fill:rgb(17,186,183);fill-rule:nonzero;"/>
                    <path d="M93.966,45.027L92.504,13.653L92.953,13.653L94.414,45.027L93.966,45.027Z" style="fill:rgb(3,187,184);fill-rule:nonzero;"/>
                    <path d="M93.517,45.027L92.056,13.653L92.504,13.653L93.966,45.027L93.517,45.027Z" style="fill:rgb(6,184,182);fill-rule:nonzero;"/>
                    <path d="M93.069,45.027L91.608,13.653L92.056,13.653L93.517,45.027L93.069,45.027Z" style="fill:rgb(6,184,182);fill-rule:nonzero;"/>
                    <path d="M92.62,45.027L91.159,13.653L91.608,13.653L93.069,45.027L92.62,45.027Z" style="fill:rgb(6,184,182);fill-rule:nonzero;"/>
                    <path d="M92.172,45.027L90.711,13.653L91.159,13.653L92.62,45.027L92.172,45.027Z" style="fill:rgb(0,183,182);fill-rule:nonzero;"/>
                    <path d="M91.723,45.027L90.262,13.653L90.711,13.653L92.172,45.027L91.723,45.027Z" style="fill:rgb(3,183,181);fill-rule:nonzero;"/>
                    <path d="M91.275,45.027L89.814,13.653L90.262,13.653L91.723,45.027L91.275,45.027Z" style="fill:rgb(4,183,180);fill-rule:nonzero;"/>
                    <path d="M90.826,45.027L89.365,13.653L89.814,13.653L91.275,45.027L90.826,45.027Z" style="fill:rgb(0,182,181);fill-rule:nonzero;"/>
                    <path d="M90.378,45.027L88.917,13.653L89.365,13.653L90.826,45.027L90.378,45.027Z" style="fill:rgb(0,182,181);fill-rule:nonzero;"/>
                    <path d="M89.929,45.027L88.468,13.653L88.917,13.653L90.378,45.027L89.929,45.027Z" style="fill:rgb(0,182,181);fill-rule:nonzero;"/>
                    <path d="M89.481,45.027L88.02,13.653L88.468,13.653L89.929,45.027L89.481,45.027ZM89.033,45.027L87.571,13.653L88.02,13.653L89.481,45.027L89.033,45.027Z" style="fill:rgb(3,182,180);fill-rule:nonzero;"/>
                    <path d="M88.584,45.027L87.123,13.653L87.571,13.653L89.033,45.027L88.584,45.027Z" style="fill:rgb(5,182,178);fill-rule:nonzero;"/>
                    <path d="M88.136,45.027L86.674,13.653L87.123,13.653L88.584,45.027L88.136,45.027Z" style="fill:rgb(1,181,177);fill-rule:nonzero;"/>
                    <path d="M87.687,45.027L86.673,23.244L86.673,13.653L86.674,13.653L88.136,45.027L87.687,45.027ZM87.239,45.027L86.673,32.873L86.673,23.244L87.687,45.027L87.239,45.027Z" style="fill:rgb(1,181,177);fill-rule:nonzero;"/>
                    <path d="M86.79,45.027L86.673,42.502L86.673,32.873L87.239,45.027L86.79,45.027Z" style="fill:rgb(0,180,177);fill-rule:nonzero;"/>
                    <path d="M86.673,42.502L86.79,45.027L86.673,45.027L86.673,42.502Z" style="fill:rgb(0,180,177);fill-rule:nonzero;"/>
                </g>
            </g>
            <g transform="matrix(1,0,0,1,5.22,4.97)">
                <path d="M30.353,13.486L14.218,29.742L30.473,45.877L44.225,45.826L29.804,31.521L101.013,31.257L94.772,37.54L101.648,37.515L109.716,29.387L101.588,21.32L94.712,21.345L101,27.583L29.791,27.847L44.104,13.435L30.353,13.486Z" style="fill:rgb(36,75,90);fill-rule:nonzero;"/>
            </g>
        </g>
    </g>
    <g id="svg_210" transform="matrix(0.0371528,0,0,-0.0371528,144.291,-726.856)">
        <path id="svg_211" d="M11664.2,-34670.9L11664.2,-33838.9C11664.2,-33830.2 11661,-33822.7 11654.7,-33816.4C11648.4,-33810 11640.9,-33806.9 11632.2,-33806.9L10032.2,-33806.9C10023.5,-33806.9 10016,-33810 10009.7,-33816.4C10003.4,-33822.7 10000.2,-33830.2 10000.2,-33838.9L10000.2,-34670.9C10000.2,-34679.5 10003.4,-34687 10009.7,-34693.4C10016,-34699.7 10023.5,-34702.9 10032.2,-34702.9L11632.2,-34702.9C11640.9,-34702.9 11648.4,-34699.7 11654.7,-34693.4C11661,-34687 11664.2,-34679.5 11664.2,-34670.9ZM11792.2,-33838.9L11792.2,-34926.9C11792.2,-34970.9 11776.5,-35008.5 11745.2,-35039.9C11713.9,-35071.2 11676.2,-35086.9 11632.2,-35086.9L11088.2,-35086.9C11088.2,-35111.5 11093.5,-35137.4 11104.2,-35164.4C11114.9,-35191.4 11125.5,-35215 11136.2,-35235.4C11146.9,-35255.7 11152.2,-35270.2 11152.2,-35278.9C11152.2,-35296.2 11145.9,-35311.2 11133.2,-35323.9C11120.5,-35336.5 11105.5,-35342.9 11088.2,-35342.9L10576.2,-35342.9C10558.9,-35342.9 10543.9,-35336.5 10531.2,-35323.9C10518.5,-35311.2 10512.2,-35296.2 10512.2,-35278.9C10512.2,-35269.5 10517.5,-35254.9 10528.2,-35234.9C10538.9,-35214.9 10549.5,-35191.5 10560.2,-35164.9C10570.9,-35138.2 10576.2,-35112.2 10576.2,-35086.9L10032.2,-35086.9C9988.22,-35086.9 9950.55,-35071.2 9919.22,-35039.9C9887.88,-35008.5 9872.22,-34970.9 9872.22,-34926.9L9872.22,-33838.9C9872.22,-33794.9 9887.88,-33757.2 9919.22,-33725.9C9950.55,-33694.5 9988.22,-33678.9 10032.2,-33678.9L11632.2,-33678.9C11676.2,-33678.9 11713.9,-33694.5 11745.2,-33725.9C11776.5,-33757.2 11792.2,-33794.9 11792.2,-33838.9Z" style="fill:rgb(65,64,66);fill-rule:nonzero;"/>
    </g>
    <g transform="matrix(1,0,0,1,-5.22696,3.25684)">
        <path d="M262.095,471.633C262.095,467.608 258.826,464.339 254.8,464.339L189.589,464.339C185.563,464.339 182.294,467.608 182.294,471.633L182.294,486.222C182.294,490.248 185.563,493.516 189.589,493.516L254.8,493.516C258.826,493.516 262.095,490.248 262.095,486.222L262.095,471.633Z" style="fill:rgb(104,33,122);"/>
    </g>
    <g transform="matrix(1,0,0,1,-19.4414,15.5399)">
        <text x="204.239px" y="474.314px" style="font-family:'ArialMT', 'Arial', sans-serif;font-size:20px;fill:white;">.NET<tspan x="249.435px 254.991px " y="474.314px 474.314px "> 6</tspan></text>
    </g>
    <g transform="matrix(1.14687,0,0,1,85.9986,3.25684)">
        <path d="M262.095,471.633C262.095,467.608 259.245,464.339 255.735,464.339L188.654,464.339C185.144,464.339 182.294,467.608 182.294,471.633L182.294,486.222C182.294,490.248 185.144,493.516 188.654,493.516L255.735,493.516C259.245,493.516 262.095,490.248 262.095,486.222L262.095,471.633Z" style="fill:rgb(104,33,122);"/>
    </g>
    <g transform="matrix(1,0,0,1,98.5586,15.5399)">
        <text x="204.239px" y="474.314px" style="font-family:'ArialMT', 'Arial', sans-serif;font-size:20px;fill:white;">.NET<tspan x="249.435px 254.991px " y="474.314px 474.314px "> F</tspan>X</text>
    </g>
    <defs>
        <linearGradient id="_Linear2" x1="0" y1="0" x2="1" y2="0" gradientUnits="userSpaceOnUse" gradientTransform="matrix(54.6,54.7826,-54.7826,54.6,55.5492,77.0703)"><stop offset="0" style="stop-color:rgb(56,126,184);stop-opacity:1"/><stop offset="1" style="stop-color:rgb(54,105,148);stop-opacity:1"/></linearGradient>
        <linearGradient id="_Linear3" x1="0" y1="0" x2="1" y2="0" gradientUnits="userSpaceOnUse" gradientTransform="matrix(58.6406,56.1807,-56.1807,58.6406,89.1367,111.921)"><stop offset="0" style="stop-color:rgb(255,224,82);stop-opacity:1"/><stop offset="1" style="stop-color:rgb(255,195,49);stop-opacity:1"/></linearGradient>
        <linearGradient id="_Linear4" x1="0" y1="0" x2="1" y2="0" gradientUnits="userSpaceOnUse" gradientTransform="matrix(81.6817,-81.6816,81.6816,81.6817,4211.53,461.045)"><stop offset="0" style="stop-color:rgb(199,87,188);stop-opacity:1"/><stop offset="0.11" style="stop-color:rgb(199,87,188);stop-opacity:1"/><stop offset="0.21" style="stop-color:rgb(208,96,154);stop-opacity:1"/><stop offset="0.43" style="stop-color:rgb(225,114,92);stop-opacity:1"/><stop offset="0.6" style="stop-color:rgb(238,126,47);stop-opacity:1"/><stop offset="0.74" style="stop-color:rgb(245,134,19);stop-opacity:1"/><stop offset="0.82" style="stop-color:rgb(248,137,9);stop-opacity:1"/><stop offset="1" style="stop-color:rgb(248,137,9);stop-opacity:1"/></linearGradient>
        <linearGradient id="_Linear5" x1="0" y1="0" x2="1" y2="0" gradientUnits="userSpaceOnUse" gradientTransform="matrix(43.0294,-43.0294,43.0294,43.0294,4259.01,489.821)"><stop offset="0" style="stop-color:rgb(0,149,213);stop-opacity:1"/><stop offset="0.1" style="stop-color:rgb(0,149,213);stop-opacity:1"/><stop offset="0.3" style="stop-color:rgb(35,138,217);stop-opacity:1"/><stop offset="0.62" style="stop-color:rgb(85,123,222);stop-opacity:1"/><stop offset="0.86" style="stop-color:rgb(116,114,226);stop-opacity:1"/><stop offset="1" style="stop-color:rgb(128,110,227);stop-opacity:1"/></linearGradient>
        <linearGradient id="_Linear6" x1="0" y1="0" x2="1" y2="0" gradientUnits="userSpaceOnUse" gradientTransform="matrix(37.6108,-37.6105,37.6105,37.6108,4218.41,404.557)"><stop offset="0" style="stop-color:rgb(0,149,213);stop-opacity:1"/><stop offset="0.1" style="stop-color:rgb(0,149,213);stop-opacity:1"/><stop offset="0.3" style="stop-color:rgb(35,138,217);stop-opacity:1"/><stop offset="0.62" style="stop-color:rgb(85,123,222);stop-opacity:1"/><stop offset="0.86" style="stop-color:rgb(116,114,226);stop-opacity:1"/><stop offset="1" style="stop-color:rgb(128,110,227);stop-opacity:1"/></linearGradient>
    </defs>
</svg>
